JosefinSlab-LightItalic-TTF.ufo
<glyph name="exclam" format="1">
  <advance width="201"/>
  <unicode hex="0021"/>
  <outline>
    <contour>
      <point x="49" y="29" type="qcurve" name="av01"/>
      <point x="39" y="29"/>
      <point x="26" y="44"/>
      <point x="27" y="55" type="qcurve" name="ah01"/>
      <point x="28" y="67"/>
      <point x="47" y="82"/>
      <point x="56" y="82" type="qcurve" name="sv01"/>
      <point x="67" y="82"/>
      <point x="80" y="67"/>
      <point x="79" y="55" type="qcurve" name="sh01"/>
      <point x="77" y="44"/>
      <point x="59" y="29"/>
    </contour>
    <contour>
      <point x="136" y="750" type="line" name="sh03"/>
      <point x="164" y="750" type="line" name="sh05"/>
      <point x="82" y="166" type="line" name="sh04"/>
      <point x="54" y="166" type="line" name="sh02"/>
    </contour>
  </outline>
</glyph>
<glyph name="quotedbl" format="1">
  <advance width="301"/>
  <unicode hex="0022"/>
  <outline>
    <contour>
      <point x="178" y="472" type="line" name="sh02"/>
      <point x="213" y="720" type="line" name="sh03"/>
      <point x="244" y="720" type="line" name="sh05"/>
      <point x="234" y="657"/>
      <point x="215" y="535"/>
      <point x="205" y="472" type="qcurve" name="sh04"/>
    </contour>
    <contour>
      <point x="45" y="472" type="line" name="ah01"/>
      <point x="80" y="720" type="line" name="sh06"/>
      <point x="111" y="720" type="line" name="sh07"/>
      <point x="101" y="657"/>
      <point x="82" y="535"/>
      <point x="72" y="472" type="qcurve" name="sh01"/>
    </contour>
  </outline>
</glyph>
<glyph name="numbersign" format="1">
  <advance width="571"/>
  <unicode hex="0023"/>
  <outline>
    <contour>
      <point x="201" y="400" type="line" name="ih01"/>
      <point x="190" y="361"/>
      <point x="171" y="284"/>
      <point x="161" y="245" type="qcurve" name="ih02"/>
      <point x="317" y="245" type="line" name="ih03"/>
      <point x="327" y="284"/>
      <point x="346" y="361"/>
      <point x="357" y="400" type="qcurve" name="ih04"/>
    </contour>
    <contour>
      <point x="253" y="0" type="line" name="sh03"/>
      <point x="267" y="55"/>
      <point x="295" y="163"/>
      <point x="309" y="218" type="qcurve" name="ih05"/>
      <point x="153" y="218" type="line" name="ih06"/>
      <point x="139" y="163"/>
      <point x="111" y="55"/>
      <point x="97" y="0" type="qcurve" name="sh01"/>
      <point x="69" y="0" type="line" name="dh01"/>
      <point x="83" y="55"/>
      <point x="111" y="163"/>
      <point x="125" y="218" type="qcurve" name="ih07"/>
      <point x="13" y="218" type="line" name="sh06"/>
      <point x="15" y="225"/>
      <point x="18" y="238"/>
      <point x="20" y="245" type="qcurve"/>
      <point x="133" y="245" type="line" name="ih08"/>
      <point x="143" y="284"/>
      <point x="162" y="361"/>
      <point x="173" y="400" type="qcurve" name="ih09"/>
      <point x="62" y="400" type="line" name="sh07"/>
      <point x="63" y="407"/>
      <point x="66" y="420"/>
      <point x="68" y="427" type="qcurve"/>
      <point x="180" y="427" type="line" name="ih10"/>
      <point x="237" y="643" type="line" name="sh05"/>
      <point x="265" y="643" type="line" name="sh02"/>
      <point x="208" y="427" type="line" name="ih11"/>
      <point x="364" y="427" type="line" name="ih12"/>
      <point x="421" y="643" type="line" name="sh04"/>
      <point x="449" y="643" type="line" name="sh08"/>
      <point x="392" y="427" type="line" name="ih13"/>
      <point x="521" y="427" type="line" name="sh09"/>
      <point x="515" y="400" type="line"/>
      <point x="385" y="400" type="line" name="ih14"/>
      <point x="374" y="361"/>
      <point x="355" y="284"/>
      <point x="345" y="245" type="qcurve" name="ih15"/>
      <point x="473" y="245" type="line" name="sh10"/>
      <point x="471" y="238"/>
      <point x="468" y="225"/>
      <point x="466" y="218" type="qcurve"/>
      <point x="337" y="218" type="line" name="ih16"/>
      <point x="323" y="163"/>
      <point x="295" y="55"/>
      <point x="281" y="0" type="qcurve" name="dh02"/>
    </contour>
  </outline>
</glyph>
<glyph name="dollar" format="1">
  <advance width="567"/>
  <unicode hex="0024"/>
  <outline>
    <contour>
      <point x="394" y="546" type="line" name="sh03"/>
      <point x="407" y="643" type="line" name="sh04"/>
      <point x="391" y="656"/>
      <point x="337" y="675"/>
      <point x="298" y="677" type="qcurve" name="ih03"/>
      <point x="257" y="384" type="line" name="ih04"/>
      <point x="291" y="373"/>
      <point x="358" y="348" name="fv01"/>
      <point x="383.5" y="327.0" type="qcurve" smooth="yes" name="inserted"/>
      <point x="409" y="306" name="fh01"/>
      <point x="435" y="238"/>
      <point x="429" y="186" type="qcurve" name="dh02"/>
      <point x="424" y="143" name="fh02"/>
      <point x="383" y="73" name="fh03"/>
      <point x="352.0" y="48.0" type="qcurve" smooth="yes" name="inserted"/>
      <point x="321" y="23" name="fh04"/>
      <point x="243" y="-6"/>
      <point x="201" y="-8" type="qcurve" name="ih05"/>
      <point x="193" y="-68" type="line" name="sh05"/>
      <point x="166" y="-68" type="line" name="ih02"/>
      <point x="174" y="-7" type="line" name="ih06"/>
      <point x="138" y="-6"/>
      <point x="80" y="11"/>
      <point x="59.0" y="22.5" type="qcurve" smooth="yes" name="inserted"/>
      <point x="38" y="34"/>
      <point x="9" y="60"/>
      <point x="2" y="70" type="qcurve" name="sh07"/>
      <point x="16" y="173" type="line" name="sh08"/>
      <point x="43" y="173" type="line" name="sh09"/>
      <point x="30" y="83" type="line" name="sh10"/>
      <point x="53" y="57" name="fh05"/>
      <point x="124" y="22"/>
      <point x="178" y="20" type="qcurve" name="ih07"/>
      <point x="226" y="362" type="line" name="ih08"/>
      <point x="197" y="371" name="fv02"/>
      <point x="143" y="393" name="fh06"/>
      <point x="123.0" y="410.0" type="qcurve" smooth="yes" name="inserted"/>
      <point x="103" y="427" name="fh07"/>
      <point x="82" y="478"/>
      <point x="86" y="517" type="qcurve" name="dh01"/>
      <point x="89" y="549"/>
      <point x="115" y="613" name="fh08"/>
      <point x="138.5" y="639.5" type="qcurve" smooth="yes" name="inserted"/>
      <point x="162" y="666" name="fh09"/>
      <point x="230" y="701"/>
      <point x="275" y="703" type="qcurve" name="ih09"/>
      <point x="283" y="764" type="line" name="sh06"/>
      <point x="310" y="764" type="line" name="ih01"/>
      <point x="302" y="704" type="line" name="ih10"/>
      <point x="334" y="702"/>
      <point x="408" y="683" name="fv03"/>
      <point x="436" y="657" type="qcurve" name="sh01"/>
      <point x="421" y="546" type="line" name="sh02"/>
    </contour>
    <contour>
      <point x="400" y="183" type="qcurve" name="sh11"/>
      <point x="406" y="227"/>
      <point x="385" y="285"/>
      <point x="363.5" y="303.5" type="qcurve" smooth="yes" name="inserted"/>
      <point x="342" y="322"/>
      <point x="284" y="345"/>
      <point x="253" y="354" type="qcurve" name="ih11"/>
      <point x="205" y="20" type="line" name="ih12"/>
      <point x="239" y="22"/>
      <point x="305" y="46"/>
      <point x="332.0" y="67.0" type="qcurve" smooth="yes" name="inserted"/>
      <point x="359" y="88" name="fh10"/>
      <point x="395" y="147"/>
    </contour>
    <contour>
      <point x="115" y="527" type="qcurve" name="sh12"/>
      <point x="110" y="495"/>
      <point x="126" y="451"/>
      <point x="142.5" y="435.5" type="qcurve" smooth="yes" name="inserted"/>
      <point x="159" y="420" name="fh11"/>
      <point x="204" y="400"/>
      <point x="230" y="392" type="qcurve" name="ih13"/>
      <point x="271" y="675" type="line" name="ih14"/>
      <point x="237" y="673"/>
      <point x="182" y="647"/>
      <point x="162.5" y="627.0" type="qcurve" smooth="yes" name="inserted"/>
      <point x="143" y="607"/>
      <point x="119" y="555"/>
    </contour>
  </outline>
</glyph>
<glyph name="percent" format="1">
  <advance width="726"/>
  <unicode hex="0025"/>
  <outline>
    <contour>
      <point x="416" y="112" type="qcurve" name="sh01"/>
      <point x="414" y="94"/>
      <point x="423" y="63" name="fh01"/>
      <point x="433.0" y="51.5" type="qcurve" smooth="yes" name="inserted"/>
      <point x="443" y="40" name="fh02"/>
      <point x="472" y="27"/>
      <point x="490" y="27" type="qcurve" name="sv01"/>
      <point x="508" y="27"/>
      <point x="541" y="40"/>
      <point x="554.5" y="51.5" type="qcurve" smooth="yes" name="inserted"/>
      <point x="568" y="63"/>
      <point x="585" y="94"/>
      <point x="588" y="112" type="qcurve" name="sh02"/>
      <point x="592" y="147" name="fv01"/>
      <point x="549" y="197" name="fh03"/>
      <point x="514" y="197" type="qcurve" name="sv03"/>
      <point x="496" y="197"/>
      <point x="463" y="184"/>
      <point x="449.5" y="172.5" type="qcurve" smooth="yes" name="inserted"/>
      <point x="436" y="161"/>
      <point x="419" y="130"/>
    </contour>
    <contour>
      <point x="486" y="0" type="qcurve" name="ab01"/>
      <point x="463" y="0"/>
      <point x="424" y="18"/>
      <point x="410.5" y="33.0" type="qcurve" smooth="yes" name="inserted"/>
      <point x="397" y="48"/>
      <point x="385" y="89"/>
      <point x="388" y="113" type="qcurve" name="dh03"/>
      <point x="392" y="136"/>
      <point x="416" y="177" name="fh04"/>
      <point x="433.5" y="192.0" type="qcurve" smooth="yes" name="inserted"/>
      <point x="451" y="207" name="fh05"/>
      <point x="495" y="224"/>
      <point x="518" y="224" type="qcurve" name="sv02"/>
      <point x="541" y="224"/>
      <point x="580" y="207"/>
      <point x="593.5" y="192.0" type="qcurve" smooth="yes" name="inserted"/>
      <point x="607" y="177"/>
      <point x="619" y="136"/>
      <point x="616" y="113" type="qcurve" name="dh04"/>
      <point x="613" y="89" name="fh06"/>
      <point x="588" y="48" name="fh07"/>
      <point x="570.5" y="33.0" type="qcurve" smooth="yes" name="inserted"/>
      <point x="553" y="18" name="fh08"/>
      <point x="509" y="0"/>
    </contour>
    <contour>
      <point x="151" y="388" type="qcurve" name="sh03"/>
      <point x="149" y="370"/>
      <point x="158" y="340" name="fh09"/>
      <point x="168.0" y="328.5" type="qcurve" smooth="yes" name="inserted"/>
      <point x="178" y="317" name="fv02"/>
      <point x="207" y="304"/>
      <point x="225" y="304" type="qcurve" name="sv06"/>
      <point x="243" y="304"/>
      <point x="276" y="317"/>
      <point x="289.5" y="328.5" type="qcurve" smooth="yes" name="inserted"/>
      <point x="303" y="340"/>
      <point x="320" y="370"/>
      <point x="323" y="388" type="qcurve" name="sh04"/>
      <point x="327" y="423" name="fv03"/>
      <point x="284" y="473" name="fh10"/>
      <point x="249" y="473" type="qcurve" name="sv07"/>
      <point x="231" y="473"/>
      <point x="198" y="460"/>
      <point x="184.5" y="448.5" type="qcurve" smooth="yes" name="inserted"/>
      <point x="171" y="437"/>
      <point x="154" y="406"/>
    </contour>
    <contour>
      <point x="221" y="276" type="qcurve" name="sv05"/>
      <point x="198" y="276"/>
      <point x="159" y="294"/>
      <point x="145.5" y="309.0" type="qcurve" smooth="yes" name="inserted"/>
      <point x="132" y="324"/>
      <point x="120" y="365"/>
      <point x="123" y="389" type="qcurve" name="dh01"/>
      <point x="126" y="412" name="fh11"/>
      <point x="150" y="453" name="fh12"/>
      <point x="168.0" y="468.0" type="qcurve" smooth="yes" name="inserted"/>
      <point x="186" y="483" name="fh13"/>
      <point x="230" y="501"/>
      <point x="253" y="501" type="qcurve" name="sv04"/>
      <point x="276" y="501"/>
      <point x="314" y="483"/>
      <point x="327.5" y="468.0" type="qcurve" smooth="yes" name="inserted"/>
      <point x="341" y="453"/>
      <point x="354" y="412"/>
      <point x="351" y="389" type="qcurve" name="dh02"/>
      <point x="347" y="365"/>
      <point x="323" y="324" name="fh14"/>
      <point x="305.0" y="309.0" type="qcurve" smooth="yes" name="inserted"/>
      <point x="287" y="294" name="fh15"/>
      <point x="244" y="276"/>
    </contour>
    <contour>
      <point x="165" y="0" type="line" name="dh05"/>
      <point x="258" y="126"/>
      <point x="441" y="374"/>
      <point x="534" y="500" type="qcurve" name="sh05"/>
      <point x="565" y="500" type="line" name="dh06"/>
      <point x="472" y="374"/>
      <point x="289" y="126"/>
      <point x="196" y="0" type="qcurve" name="sh06"/>
    </contour>
  </outline>
</glyph>
<glyph name="ampersand" format="1">
  <advance width="700"/>
  <unicode hex="0026"/>
  <outline>
    <contour>
      <point x="468" y="375" type="line" name="sh01"/>
      <point x="600" y="375" type="line" name="sh02"/>
      <point x="596" y="348" type="line"/>
      <point x="492" y="348" type="line" name="dh02"/>
      <point x="482" y="270" type="line"/>
      <point x="476" y="227"/>
      <point x="461" y="136"/>
      <point x="433" y="96" type="qcurve" name="ih01"/>
      <point x="481" y="-4" type="line" name="sh03"/>
      <point x="457" y="-19" type="line" name="sh04"/>
      <point x="414" y="70" type="line" name="ih02"/>
      <point x="382" y="35" name="fh01"/>
      <point x="295" y="-7"/>
      <point x="247" y="-7" type="qcurve" name="ab01"/>
      <point x="206" y="-7"/>
      <point x="139" y="23" name="fh02"/>
      <point x="116.5" y="49.5" type="qcurve" smooth="yes" name="inserted"/>
      <point x="94" y="76" name="fh03"/>
      <point x="73" y="146"/>
      <point x="79" y="187" type="qcurve" name="dh01"/>
      <point x="84" y="223"/>
      <point x="118" y="288" name="fh04"/>
      <point x="143.5" y="313.5" type="qcurve" smooth="yes" name="inserted"/>
      <point x="169" y="339" name="fh05"/>
      <point x="233" y="373" name="fh06"/>
      <point x="268" y="379" type="qcurve" name="ih03"/>
      <point x="213" y="496" type="line"/>
      <point x="199" y="526"/>
      <point x="194" y="590" name="sh05"/>
      <point x="203.0" y="621.0" type="qcurve" smooth="yes" name="inserted"/>
      <point x="212" y="652" name="fh07"/>
      <point x="256" y="706" name="fh08"/>
      <point x="292" y="726" type="qcurve" name="fv01"/>
      <point x="323" y="743"/>
      <point x="382" y="750" name="at01"/>
      <point x="409.0" y="745.0" type="qcurve" smooth="yes" name="inserted"/>
      <point x="436" y="740"/>
      <point x="483" y="718"/>
      <point x="500" y="706" type="qcurve" name="sh06"/>
      <point x="485" y="682" type="line" name="sh07"/>
      <point x="466" y="694"/>
      <point x="424" y="715"/>
      <point x="401.5" y="719.5" type="qcurve" smooth="yes" name="inserted"/>
      <point x="379" y="724" name="sv01"/>
      <point x="331" y="718" name="fh09"/>
      <point x="306" y="704" type="qcurve" name="fh10"/>
      <point x="243" y="667" name="fh11"/>
      <point x="214" y="558" name="sh08"/>
      <point x="238" y="506" type="qcurve" name="fh12"/>
      <point x="415" y="133" type="line" name="ih04"/>
      <point x="426" y="149" name="fh13"/>
      <point x="442" y="185" name="fh14"/>
      <point x="445" y="205" type="qcurve" name="fh15"/>
    </contour>
    <contour>
      <point x="107" y="187" type="qcurve" name="sh09"/>
      <point x="102" y="152"/>
      <point x="119" y="91" name="fh16"/>
      <point x="138.5" y="68.5" type="qcurve" smooth="yes" name="inserted"/>
      <point x="158" y="46" name="fh17"/>
      <point x="216" y="20"/>
      <point x="251" y="20" type="qcurve" name="sv02"/>
      <point x="296" y="20"/>
      <point x="376" y="61"/>
      <point x="402" y="96" type="qcurve" name="ih05"/>
      <point x="281" y="353" type="line" name="sh10"/>
      <point x="248" y="350" name="fh18"/>
      <point x="189" y="322" name="fh19"/>
      <point x="165.5" y="300.0" type="qcurve" smooth="yes" name="inserted"/>
      <point x="142" y="278" name="fh20"/>
      <point x="111" y="220"/>
    </contour>
  </outline>
</glyph>
<glyph name="quotesingle" format="1">
  <advance width="150"/>
  <unicode hex="0027"/>
  <outline>
    <contour>
      <point x="44" y="472" type="line" name="ah01"/>
      <point x="79" y="720" type="line" name="sh01"/>
      <point x="110" y="720" type="line" name="sh03"/>
      <point x="100" y="657"/>
      <point x="81" y="535"/>
      <point x="71" y="472" type="qcurve" name="sh02"/>
    </contour>
  </outline>
</glyph>
<glyph name="asterisk" format="1">
  <advance width="335"/>
  <unicode hex="002A"/>
  <outline>
    <contour>
      <point x="195" y="575" type="line" name="sh02"/>
      <point x="218" y="561" name="fv01"/>
      <point x="266" y="531" name="fv02"/>
      <point x="289" y="517" type="qcurve" name="ih04"/>
      <point x="284" y="510"/>
      <point x="274" y="497"/>
      <point x="269" y="490" type="qcurve" name="sh03"/>
      <point x="176" y="550" type="line" name="ih03"/>
      <point x="171" y="521"/>
      <point x="163" y="463"/>
      <point x="158" y="434" type="qcurve" name="sh01"/>
      <point x="131" y="434" type="line" name="ih01"/>
      <point x="147" y="550" type="line" name="ih05"/>
      <point x="120" y="535"/>
      <point x="66" y="506"/>
      <point x="39" y="492" type="qcurve" name="sh05"/>
      <point x="36" y="499"/>
      <point x="31" y="512"/>
      <point x="28" y="519" type="qcurve" name="dh01"/>
      <point x="136" y="576" type="line" name="sh06"/>
      <point x="113" y="591"/>
      <point x="68" y="621"/>
      <point x="45" y="636" type="qcurve" name="ih07"/>
      <point x="48" y="642"/>
      <point x="57" y="654"/>
      <point x="61" y="660" type="qcurve" name="sh07"/>
      <point x="84" y="645"/>
      <point x="132" y="615"/>
      <point x="155" y="600" type="qcurve" name="ih06"/>
      <point x="172" y="720" type="line" name="sh04"/>
      <point x="203" y="720" type="line" name="ih02"/>
      <point x="198" y="690"/>
      <point x="189" y="630"/>
      <point x="184" y="600" type="qcurve" name="ih08"/>
      <point x="212.5" y="614.5" name="inserted"/>
      <point x="268.5" y="644.0"/>
      <point x="296" y="659" type="qcurve" name="sh08"/>
      <point x="299" y="653"/>
      <point x="304" y="641"/>
      <point x="306" y="635" type="qcurve" name="dh02"/>
    </contour>
  </outline>
</glyph>
<glyph name="plus" format="1">
  <advance width="543"/>
  <unicode hex="002B"/>
  <outline>
    <contour>
      <point x="226" y="51" type="line" name="ah01"/>
      <point x="250" y="218" type="line" name="ih01"/>
      <point x="84" y="218" type="line" name="sh02"/>
      <point x="88" y="245" type="line"/>
      <point x="254" y="245" type="line" name="ih02"/>
      <point x="277" y="411" type="line" name="sh01"/>
      <point x="305" y="411" type="line" name="sh04"/>
      <point x="282" y="245" type="line" name="ih03"/>
      <point x="448" y="245" type="line" name="sh05"/>
      <point x="444" y="218" type="line"/>
      <point x="278" y="218" type="line" name="ih04"/>
      <point x="254" y="51" type="line" name="sh03"/>
    </contour>
  </outline>
</glyph>
<glyph name="comma" format="1">
  <advance width="200"/>
  <unicode hex="002C"/>
  <outline>
    <contour>
      <point x="148" y="86" type="line" name="sh01"/>
      <point x="119" y="34"/>
      <point x="62" y="-68"/>
      <point x="33" y="-120" type="qcurve" name="sh02"/>
      <point x="7" y="-120" type="line" name="ah01"/>
      <point x="34" y="-68"/>
      <point x="86" y="34"/>
      <point x="113" y="86" type="qcurve" name="sh03"/>
    </contour>
  </outline>
</glyph>
<glyph name="period" format="1">
  <advance width="163"/>
  <unicode hex="002E"/>
  <outline>
    <contour>
      <point x="59" y="26" type="qcurve" name="ah01"/>
      <point x="61" y="37"/>
      <point x="78" y="53"/>
      <point x="89" y="53" type="qcurve" name="sv01"/>
      <point x="100" y="53"/>
      <point x="114" y="37"/>
      <point x="112" y="26" type="qcurve" name="sh01"/>
      <point x="110" y="15"/>
      <point x="93" y="0"/>
      <point x="82" y="0" type="qcurve" name="ab01"/>
      <point x="71" y="0"/>
      <point x="57" y="15"/>
    </contour>
  </outline>
</glyph>
<glyph name="zero" format="1">
  <advance width="616"/>
  <unicode hex="0030"/>
  <outline>
    <contour>
      <point x="36" y="327" type="qcurve" name="dh01"/>
      <point x="44" y="380"/>
      <point x="91" y="497" name="fh01"/>
      <point x="131.0" y="546.0" type="qcurve" smooth="yes" name="inserted"/>
      <point x="171" y="595" name="fh02"/>
      <point x="282" y="658" name="fh03"/>
      <point x="354" y="658" type="qcurve" name="at01"/>
      <point x="424" y="658" name="fh04"/>
      <point x="516" y="593" name="fh05"/>
      <point x="541.5" y="544.0" type="qcurve" smooth="yes" name="inserted"/>
      <point x="567" y="495" name="fh06"/>
      <point x="580" y="378"/>
      <point x="572" y="324" type="qcurve" name="dh02"/>
      <point x="562" y="253"/>
      <point x="501" y="132" name="fh07"/>
      <point x="457.5" y="87.5" type="qcurve" smooth="yes" name="inserted"/>
      <point x="414" y="43" name="fh08"/>
      <point x="308" y="-7"/>
      <point x="254" y="-7" type="qcurve" name="ab01"/>
      <point x="200" y="-7"/>
      <point x="111" y="45" name="fh09"/>
      <point x="81.0" y="89.5" type="qcurve" smooth="yes" name="inserted"/>
      <point x="51" y="134"/>
      <point x="26" y="256"/>
    </contour>
    <contour>
      <point x="65" y="328" type="qcurve" name="sh01"/>
      <point x="55" y="259"/>
      <point x="79" y="146" name="fh10"/>
      <point x="106.5" y="105.5" type="qcurve" smooth="yes" name="inserted"/>
      <point x="134" y="65" name="fh11"/>
      <point x="214" y="20" name="fh12"/>
      <point x="260" y="20" type="qcurve" name="sv01"/>
      <point x="306" y="20"/>
      <point x="399" y="63" name="fv01"/>
      <point x="438.0" y="103.0" type="qcurve" smooth="yes" name="inserted"/>
      <point x="477" y="143"/>
      <point x="534" y="255"/>
      <point x="544" y="323" type="qcurve" name="sh02"/>
      <point x="554" y="389"/>
      <point x="535" y="501" name="fh13"/>
      <point x="509.5" y="542.5" type="qcurve" smooth="yes" name="inserted"/>
      <point x="484" y="584" name="fh14"/>
      <point x="402" y="631" name="fh15"/>
      <point x="349" y="631" type="qcurve" name="sv02"/>
      <point x="296" y="631"/>
      <point x="201" y="586"/>
      <point x="163.5" y="545.5" type="qcurve" smooth="yes" name="inserted"/>
      <point x="126" y="505"/>
      <point x="74" y="394"/>
    </contour>
  </outline>
</glyph>
<glyph name="one" format="1">
  <advance width="257"/>
  <unicode hex="0031"/>
  <outline>
    <contour>
      <point x="16" y="27" type="line" name="sv01"/>
      <point x="96" y="27" type="line" name="dh01"/>
      <point x="179" y="623" type="line" name="sh01"/>
      <point x="75" y="623" type="line" name="sh02"/>
      <point x="79" y="650" type="line" name="at01"/>
      <point x="211" y="650" type="line" name="sh03"/>
      <point x="124" y="27" type="line" name="dh02"/>
      <point x="204" y="27" type="line" name="sh04"/>
      <point x="200" y="0" type="line"/>
      <point x="12" y="0" type="line" name="sh05"/>
    </contour>
  </outline>
</glyph>
<glyph name="three" format="1">
  <advance width="515"/>
  <unicode hex="0033"/>
  <outline>
    <contour>
      <point x="177" y="354" type="qcurve" name="ih01"/>
      <point x="413" y="622" type="line" name="sh02"/>
      <point x="172" y="622" type="line" name="sh04"/>
      <point x="163" y="559" type="line" name="sh03"/>
      <point x="136" y="559" type="line" name="ih02"/>
      <point x="149" y="650" type="line" name="sh05"/>
      <point x="470" y="650" type="line" name="sh01"/>
      <point x="247" y="401" type="line" name="sh06"/>
      <point x="290" y="400"/>
      <point x="361" y="369" name="fh01"/>
      <point x="385.5" y="342.0" type="qcurve" smooth="yes" name="inserted"/>
      <point x="410" y="315" name="fh02"/>
      <point x="433" y="241"/>
      <point x="427" y="198" type="qcurve" name="dh02"/>
      <point x="421" y="155"/>
      <point x="377" y="80" name="fh03"/>
      <point x="345.0" y="52.0" type="qcurve" smooth="yes" name="inserted"/>
      <point x="313" y="24" name="fh04"/>
      <point x="233" y="-8" name="fv01"/>
      <point x="190" y="-8" type="qcurve" name="ab01"/>
      <point x="145" y="-8"/>
      <point x="73" y="28"/>
      <point x="49" y="59" type="qcurve" name="dh01"/>
      <point x="72" y="81" type="line" name="sh07"/>
      <point x="91" y="54"/>
      <point x="153" y="19"/>
      <point x="192" y="19" type="qcurve" name="sv01"/>
      <point x="229" y="19"/>
      <point x="299" y="48" name="fh05"/>
      <point x="327.5" y="72.5" type="qcurve" smooth="yes" name="inserted"/>
      <point x="356" y="97"/>
      <point x="394" y="162" name="fh06"/>
      <point x="399" y="198" type="qcurve" name="sh08"/>
      <point x="404" y="235"/>
      <point x="384" y="300" name="fh07"/>
      <point x="362.5" y="324.0" type="qcurve" smooth="yes" name="inserted"/>
      <point x="341" y="348" name="fh08"/>
      <point x="279" y="376"/>
      <point x="242" y="376" type="qcurve" name="sv02"/>
      <point x="225" y="376"/>
      <point x="192" y="364"/>
    </contour>
  </outline>
</glyph>
<glyph name="four" format="1">
  <advance width="510"/>
  <unicode hex="0034"/>
  <outline>
    <contour>
      <point x="255" y="27" type="line" name="sv01"/>
      <point x="332" y="27" type="line" name="sh01"/>
      <point x="354" y="183" type="line" name="ih01"/>
      <point x="16" y="183" type="line" name="dh01"/>
      <point x="449" y="658" type="line" name="sh03"/>
      <point x="386" y="210" type="line" name="ih02"/>
      <point x="483" y="210" type="line" name="sh04"/>
      <point x="479" y="183" type="line"/>
      <point x="382" y="183" type="line" name="ih03"/>
      <point x="360" y="27" type="line" name="dh02"/>
      <point x="443" y="27" type="line" name="sh05"/>
      <point x="439" y="0" type="line"/>
      <point x="251" y="0" type="line" name="sh06"/>
    </contour>
    <contour>
      <point x="409" y="576" type="line" name="sh02"/>
      <point x="77" y="210" type="line" name="sh07"/>
      <point x="358" y="210" type="line" name="ih04"/>
    </contour>
  </outline>
</glyph>
<glyph name="colon" format="1">
  <advance width="175"/>
  <unicode hex="003A"/>
  <outline>
    <contour>
      <point x="76" y="276" type="qcurve" name="sh01"/>
      <point x="78" y="287"/>
      <point x="95" y="303"/>
      <point x="106" y="303" type="qcurve" name="sv01"/>
      <point x="117" y="303"/>
      <point x="130" y="287"/>
      <point x="128" y="276" type="qcurve" name="sh02"/>
      <point x="127" y="265"/>
      <point x="109" y="250"/>
      <point x="98" y="250" type="qcurve" name="av01"/>
      <point x="87" y="250"/>
      <point x="74" y="265"/>
    </contour>
    <contour>
      <point x="41" y="26" type="qcurve" name="ah01"/>
      <point x="42" y="37"/>
      <point x="60" y="53"/>
      <point x="71" y="53" type="qcurve" name="sv02"/>
      <point x="82" y="53"/>
      <point x="95" y="37"/>
      <point x="93" y="26" type="qcurve" name="sh03"/>
      <point x="91" y="15"/>
      <point x="74" y="0"/>
      <point x="63" y="0" type="qcurve" name="ab01"/>
      <point x="52" y="0"/>
      <point x="39" y="15"/>
    </contour>
  </outline>
</glyph>
<glyph name="semicolon" format="1">
  <advance width="201"/>
  <unicode hex="003B"/>
  <outline>
    <contour>
      <point x="109" y="276" type="qcurve" name="sh03"/>
      <point x="111" y="287"/>
      <point x="128" y="303"/>
      <point x="139" y="303" type="qcurve" name="sv01"/>
      <point x="149" y="303"/>
      <point x="163" y="287"/>
      <point x="162" y="276" type="qcurve" name="sh02"/>
      <point x="160" y="265"/>
      <point x="142" y="250"/>
      <point x="132" y="250" type="qcurve" name="av01"/>
      <point x="121" y="250"/>
      <point x="107" y="265"/>
    </contour>
    <contour>
      <point x="118" y="86" type="line" name="sh01"/>
      <point x="89" y="34"/>
      <point x="33" y="-68"/>
      <point x="4" y="-120" type="qcurve" name="sh04"/>
      <point x="-22" y="-120" type="line" name="ah01"/>
      <point x="4" y="-68"/>
      <point x="56" y="34"/>
      <point x="83" y="86" type="qcurve" name="sh05"/>
    </contour>
  </outline>
</glyph>
<glyph name="greater" format="1">
  <advance width="650"/>
  <unicode hex="003E"/>
  <outline>
    <contour>
      <point x="79" y="-15" type="qcurve" name="dh01"/>
      <point x="84" y="21" type="line" name="sv01"/>
      <point x="187" y="75"/>
      <point x="390" y="184"/>
      <point x="493" y="238" type="qcurve" name="sh01"/>
      <point x="405" y="292" name="fv01"/>
      <point x="233" y="401" name="fv02"/>
      <point x="145" y="455" type="qcurve" name="sv02"/>
      <point x="150" y="491" type="line" name="sh02"/>
      <point x="251" y="428"/>
      <point x="451" y="301"/>
      <point x="553" y="238" type="qcurve" name="dh02"/>
      <point x="434" y="175"/>
      <point x="198" y="48"/>
    </contour>
  </outline>
</glyph>
<glyph name="A" format="1">
  <advance width="820"/>
  <unicode hex="0041"/>
  <outline>
    <contour>
      <point x="38" y="27" type="line"/>
      <point x="114" y="27" type="line" name="dh01"/>
      <point x="214" y="204"/>
      <point x="412" y="554"/>
      <point x="512" y="732" type="qcurve" name="ih01"/>
      <point x="563" y="554"/>
      <point x="662" y="204"/>
      <point x="712" y="27" type="qcurve" name="dh02"/>
      <point x="788" y="27" type="line" name="sh01"/>
      <point x="785" y="0" type="line"/>
      <point x="601" y="0" type="line" name="sh03"/>
      <point x="604" y="27" type="line" name="sv01"/>
      <point x="683" y="27" type="line" name="sh02"/>
      <point x="663" y="97"/>
      <point x="624" y="237"/>
      <point x="604" y="308" type="qcurve" name="ih02"/>
      <point x="302" y="308" type="line" name="ih03"/>
      <point x="262" y="237"/>
      <point x="184" y="97" name="fh01"/>
      <point x="143" y="27" type="qcurve" name="sh05"/>
      <point x="222" y="27" type="line" name="sh06"/>
      <point x="219" y="0" type="line" name="ab01"/>
      <point x="35" y="0" type="line" name="sh07"/>
    </contour>
    <contour>
      <point x="509" y="643" type="line"/>
      <point x="504" y="670" type="line" name="sh04"/>
      <point x="503" y="668"/>
      <point x="498" y="660"/>
      <point x="496" y="655" type="qcurve"/>
      <point x="490" y="643" type="line"/>
      <point x="453" y="573" name="fh02"/>
      <point x="362" y="413"/>
      <point x="318" y="335" type="qcurve" name="ih04"/>
      <point x="596" y="335" type="line" name="ih05"/>
    </contour>
  </outline>
</glyph>
<glyph name="B" format="1">
  <advance width="521"/>
  <unicode hex="0042"/>
  <outline>
    <contour>
      <point x="38" y="27" type="line" name="sv01"/>
      <point x="104" y="27" type="line" name="dh01"/>
      <point x="195" y="673" type="line" name="sh01"/>
      <point x="129" y="673" type="line" name="sh02"/>
      <point x="133" y="700" type="line" name="at01"/>
      <point x="351" y="700" type="line"/>
      <point x="397" y="700"/>
      <point x="471" y="680" name="fh01"/>
      <point x="495.0" y="659.0" type="qcurve" smooth="yes" name="inserted"/>
      <point x="519" y="638" name="fh02"/>
      <point x="540" y="571" name="fh03"/>
      <point x="533" y="525" type="qcurve" name="sh03"/>
      <point x="525" y="463" name="fh04"/>
      <point x="449" y="369" name="fh05"/>
      <point x="383" y="352" type="qcurve" name="ih01"/>
      <point x="412" y="346"/>
      <point x="463" y="318" name="fh06"/>
      <point x="481.0" y="296.0" type="qcurve" smooth="yes" name="inserted"/>
      <point x="499" y="274" name="fh07"/>
      <point x="516" y="216"/>
      <point x="511" y="180" type="qcurve" name="dh02"/>
      <point x="505" y="135" name="fh08"/>
      <point x="459" y="68" name="fh09"/>
      <point x="426.0" y="45.5" type="qcurve" smooth="yes" name="inserted"/>
      <point x="393" y="23"/>
      <point x="313" y="0"/>
      <point x="271" y="0" type="qcurve"/>
      <point x="35" y="0" type="line" name="ab01"/>
    </contour>
    <contour>
      <point x="176" y="338" type="line" name="ih02"/>
      <point x="132" y="27" type="line" name="sh04"/>
      <point x="272" y="27" type="line"/>
      <point x="311" y="27"/>
      <point x="382" y="46" name="fh10"/>
      <point x="410.5" y="65.0" type="qcurve" smooth="yes" name="inserted"/>
      <point x="439" y="84" name="fh11"/>
      <point x="478" y="142"/>
      <point x="483" y="180" type="qcurve" name="sh06"/>
      <point x="489" y="221"/>
      <point x="462" y="281" name="fh12"/>
      <point x="436.0" y="300.5" type="qcurve" smooth="yes" name="inserted"/>
      <point x="410" y="320" name="fh13"/>
      <point x="338" y="338"/>
      <point x="298" y="338" type="qcurve"/>
    </contour>
    <contour>
      <point x="223" y="673" type="line" name="sh05"/>
      <point x="180" y="365" type="line" name="ih03"/>
      <point x="319" y="365" type="line"/>
      <point x="356" y="365"/>
      <point x="420" y="388"/>
      <point x="444.5" y="409.0" type="qcurve" smooth="yes" name="inserted"/>
      <point x="469" y="430" name="fv01"/>
      <point x="500" y="489"/>
      <point x="505" y="525" type="qcurve" name="sh07"/>
      <point x="511" y="565"/>
      <point x="494" y="621"/>
      <point x="474.5" y="639.0" type="qcurve" smooth="yes" name="inserted"/>
      <point x="455" y="657" name="fh14"/>
      <point x="395" y="673"/>
      <point x="358" y="673" type="qcurve"/>
    </contour>
  </outline>
</glyph>
<glyph name="D" format="1">
  <advance width="632"/>
  <unicode hex="0044"/>
  <outline>
    <contour>
      <point x="38" y="27" type="line"/>
      <point x="106" y="27" type="line" name="dh01"/>
      <point x="197" y="673" type="line" name="sh01"/>
      <point x="129" y="673" type="line" name="sh02"/>
      <point x="133" y="700" type="line"/>
      <point x="343" y="700" type="line" name="at01"/>
      <point x="415" y="700"/>
      <point x="536" y="651" name="fh01"/>
      <point x="577.5" y="605.5" type="qcurve" smooth="yes" name="inserted"/>
      <point x="619" y="560" name="fh02"/>
      <point x="657" y="430"/>
      <point x="646" y="350" type="qcurve" name="dh02"/>
      <point x="637" y="291"/>
      <point x="579" y="167" name="fh03"/>
      <point x="526.0" y="116.0" type="qcurve" smooth="yes" name="inserted"/>
      <point x="473" y="65" name="fh04"/>
      <point x="317" y="0" name="fh05"/>
      <point x="211" y="0" type="qcurve" name="ab01"/>
      <point x="35" y="0" type="line" name="sh03"/>
    </contour>
    <contour>
      <point x="225" y="673" type="line" name="sh05"/>
      <point x="134" y="27" type="line" name="sh04"/>
      <point x="226" y="27" type="line" name="sv01"/>
      <point x="317" y="27"/>
      <point x="457" y="85" name="fh06"/>
      <point x="505.5" y="131.0" type="qcurve" smooth="yes" name="inserted"/>
      <point x="554" y="177" name="fh07"/>
      <point x="611" y="292"/>
      <point x="619" y="350" type="qcurve" name="sh06"/>
      <point x="629" y="424"/>
      <point x="595" y="544" name="fh08"/>
      <point x="556.5" y="586.0" type="qcurve" smooth="yes" name="inserted"/>
      <point x="518" y="628" name="fh09"/>
      <point x="408" y="673"/>
      <point x="342" y="673" type="qcurve" name="sv02"/>
    </contour>
  </outline>
</glyph>
<glyph name="F" format="1">
  <advance width="557"/>
  <unicode hex="0046"/>
  <outline>
    <contour>
      <point x="38" y="27" type="line" name="sv01"/>
      <point x="115" y="27" type="line" name="dh01"/>
      <point x="206" y="673" type="line" name="sh01"/>
      <point x="129" y="673" type="line" name="sh02"/>
      <point x="133" y="700" type="line" name="at01"/>
      <point x="620" y="700" type="line" name="dh02"/>
      <point x="598" y="546" type="line" name="sh03"/>
      <point x="571" y="546" type="line" name="sh04"/>
      <point x="589" y="673" type="line" name="sh05"/>
      <point x="234" y="673" type="line" name="sh07"/>
      <point x="191" y="366" type="line" name="ih01"/>
      <point x="534" y="366" type="line" name="ih02"/>
      <point x="530" y="339" type="line"/>
      <point x="187" y="339" type="line" name="ih03"/>
      <point x="143" y="27" type="line" name="sh06"/>
      <point x="226" y="27" type="line" name="sh08"/>
      <point x="223" y="0" type="line"/>
      <point x="35" y="0" type="line" name="sh09"/>
    </contour>
  </outline>
</glyph>
<glyph name="H" format="1">
  <advance width="727"/>
  <unicode hex="0048"/>
  <outline>
    <contour>
      <point x="603" y="700" type="line" name="sv01"/>
      <point x="790" y="700" type="line" name="sh02"/>
      <point x="786" y="673" type="line"/>
      <point x="709" y="673" type="line" name="sh01"/>
      <point x="618" y="27" type="line" name="dh02"/>
      <point x="695" y="27" type="line" name="sh03"/>
      <point x="692" y="0" type="line"/>
      <point x="505" y="0" type="line" name="sh05"/>
      <point x="508" y="27" type="line" name="sv03"/>
      <point x="590" y="27" type="line" name="sh04"/>
      <point x="634" y="339" type="line" name="ih01"/>
      <point x="187" y="339" type="line" name="ih02"/>
      <point x="143" y="27" type="line" name="sh07"/>
      <point x="226" y="27" type="line" name="sh09"/>
      <point x="223" y="0" type="line"/>
      <point x="35" y="0" type="line" name="sh10"/>
      <point x="38" y="27" type="line" name="sv02"/>
      <point x="115" y="27" type="line" name="dh01"/>
      <point x="207" y="673" type="line" name="sh11"/>
      <point x="129" y="673" type="line" name="sh12"/>
      <point x="133" y="700" type="line" name="at01"/>
      <point x="321" y="700" type="line" name="sh13"/>
      <point x="317" y="673" type="line"/>
      <point x="234" y="673" type="line" name="sh08"/>
      <point x="191" y="366" type="line" name="ih03"/>
      <point x="638" y="366" type="line" name="ih04"/>
      <point x="681" y="673" type="line" name="sh06"/>
      <point x="599" y="673" type="line" name="sh14"/>
    </contour>
  </outline>
</glyph>
<glyph name="Q" format="1">
  <advance width="808"/>
  <unicode hex="0051"/>
  <outline>
    <contour>
      <point x="113" y="348" type="qcurve" name="sh01"/>
      <point x="103" y="280"/>
      <point x="138" y="160" name="fh01"/>
      <point x="176.0" y="115.5" type="qcurve" smooth="yes" name="inserted"/>
      <point x="214" y="71" name="fh02"/>
      <point x="325" y="19"/>
      <point x="393" y="19" type="qcurve" name="sv01"/>
      <point x="461" y="19" name="fh03"/>
      <point x="590" y="71" name="fh04"/>
      <point x="641.5" y="116.0" type="qcurve" smooth="yes" name="inserted"/>
      <point x="693" y="161" name="fh05"/>
      <point x="763" y="281" name="fh06"/>
      <point x="773" y="349" type="qcurve" name="sh02"/>
      <point x="782" y="417"/>
      <point x="747" y="538" name="fh07"/>
      <point x="708.0" y="583.0" type="qcurve" smooth="yes" name="inserted"/>
      <point x="669" y="628" name="fh08"/>
      <point x="556" y="681" name="fh09"/>
      <point x="488" y="681" type="qcurve" name="sv02"/>
      <point x="420" y="681"/>
      <point x="293" y="628" name="fh10"/>
      <point x="242.0" y="583.0" type="qcurve" smooth="yes" name="inserted"/>
      <point x="191" y="538" name="fh11"/>
      <point x="122" y="417" name="fh12"/>
    </contour>
    <contour>
      <point x="85" y="349" type="qcurve" name="dh01"/>
      <point x="95" y="423" name="fh13"/>
      <point x="170" y="554" name="fh14"/>
      <point x="225.0" y="602.5" type="qcurve" smooth="yes" name="inserted"/>
      <point x="280" y="651" name="fh15"/>
      <point x="418" y="708"/>
      <point x="492" y="708" type="qcurve" name="at01"/>
      <point x="566" y="708"/>
      <point x="689" y="651" name="fh16"/>
      <point x="731.0" y="602.5" type="qcurve" smooth="yes" name="inserted"/>
      <point x="773" y="554" name="fh17"/>
      <point x="811" y="423"/>
      <point x="801" y="349" type="qcurve" name="dh02"/>
      <point x="793" y="295"/>
      <point x="748" y="195"/>
      <point x="714.0" y="153.5" type="qcurve" smooth="yes" name="inserted"/>
      <point x="680" y="112" name="fh18"/>
      <point x="592" y="47" name="fh19"/>
      <point x="543" y="27" type="qcurve" name="ih01"/>
      <point x="778" y="27" type="line" name="sh03"/>
      <point x="774" y="0" type="line" name="ab02"/>
      <point x="467" y="0" type="line" name="ih02"/>
      <point x="447.0" y="-4.0" name="inserted"/>
      <point x="409.5" y="-8.0"/>
      <point x="392" y="-8" type="qcurve" name="ab01"/>
      <point x="318" y="-8"/>
      <point x="196" y="48" name="fh20"/>
      <point x="154.0" y="96.5" type="qcurve" smooth="yes" name="inserted"/>
      <point x="112" y="145" name="fh21"/>
      <point x="74" y="275"/>
    </contour>
  </outline>
</glyph>
<glyph name="T" format="1">
  <advance width="623"/>
  <unicode hex="0054"/>
  <outline>
    <contour>
      <point x="220" y="27" type="line" name="sv01"/>
      <point x="300" y="27" type="line" name="dh01"/>
      <point x="392" y="673" type="line" name="sh01"/>
      <point x="156" y="673" type="line" name="sh04"/>
      <point x="138" y="546" type="line" name="sh03"/>
      <point x="111" y="546" type="line" name="sh02"/>
      <point x="133" y="700" type="line" name="sh05"/>
      <point x="686" y="700" type="line" name="sh07"/>
      <point x="664" y="546" type="line" name="sh08"/>
      <point x="637" y="546" type="line" name="sh09"/>
      <point x="655" y="673" type="line" name="sh10"/>
      <point x="419" y="673" type="line" name="sh06"/>
      <point x="328" y="27" type="line" name="dh02"/>
      <point x="408" y="27" type="line" name="sh11"/>
      <point x="405" y="0" type="line"/>
      <point x="217" y="0" type="line" name="sh12"/>
    </contour>
  </outline>
</glyph>
<glyph name="X" format="1">
  <advance width="707"/>
  <unicode hex="0058"/>
  <outline>
    <contour>
      <point x="133" y="700" type="line" name="at01"/>
      <point x="321" y="700" type="line" name="sh03"/>
      <point x="317" y="673" type="line"/>
      <point x="259" y="673" type="line" name="sh02"/>
      <point x="295" y="603"/>
      <point x="366" y="464"/>
      <point x="401" y="395" type="qcurve"/>
      <point x="408" y="379" type="line" name="ih03"/>
      <point x="419" y="395" type="line"/>
      <point x="637" y="673" type="line" name="sh04"/>
      <point x="578" y="673" type="line" name="sh05"/>
      <point x="582" y="700" type="line" name="sv01"/>
      <point x="770" y="700" type="line" name="sh06"/>
      <point x="766" y="673" type="line"/>
      <point x="670" y="673" type="line" name="dh02"/>
      <point x="607" y="592"/>
      <point x="484" y="435"/>
      <point x="421" y="355" type="qcurve" name="ih02"/>
      <point x="463" y="272"/>
      <point x="547" y="109"/>
      <point x="589" y="27" type="qcurve" name="sh07"/>
      <point x="675" y="27" type="line" name="sh08"/>
      <point x="672" y="0" type="line"/>
      <point x="484" y="0" type="line" name="sh10"/>
      <point x="487" y="27" type="line" name="sv03"/>
      <point x="554" y="27" type="line" name="sh09"/>
      <point x="427" y="275" type="line"/>
      <point x="419" y="289"/>
      <point x="405" y="322"/>
      <point x="397" y="336" type="qcurve" name="ih04"/>
      <point x="387" y="320" type="line"/>
      <point x="329" y="245"/>
      <point x="214" y="100"/>
      <point x="157" y="27" type="qcurve" name="sh11"/>
      <point x="226" y="27" type="line" name="sh12"/>
      <point x="223" y="0" type="line"/>
      <point x="35" y="0" type="line" name="sh13"/>
      <point x="38" y="27" type="line" name="sv02"/>
      <point x="124" y="27" type="line" name="dh01"/>
      <point x="384" y="359" type="line" name="ih01"/>
      <point x="225" y="673" type="line" name="sh01"/>
      <point x="129" y="673" type="line" name="sh14"/>
    </contour>
  </outline>
</glyph>
<glyph name="Y" format="1">
  <advance width="732"/>
  <unicode hex="0059"/>
  <outline>
    <contour>
      <point x="277" y="27" type="line" name="sv01"/>
      <point x="353" y="27" type="line" name="dh01"/>
      <point x="387" y="264" type="line" name="sh01"/>
      <point x="339" y="367"/>
      <point x="246" y="570"/>
      <point x="199" y="673" type="qcurve" name="sh02"/>
      <point x="129" y="673" type="line" name="sh03"/>
      <point x="133" y="700" type="line" name="at01"/>
      <point x="321" y="700" type="line" name="sh05"/>
      <point x="317" y="673" type="line"/>
      <point x="233" y="673" type="line" name="sh04"/>
      <point x="275" y="582"/>
      <point x="357" y="405"/>
      <point x="397" y="314" type="qcurve"/>
      <point x="406" y="287" type="line" name="ih01"/>
      <point x="407" y="287" type="line"/>
      <point x="421" y="314" type="line"/>
      <point x="686" y="673" type="line" name="sh08"/>
      <point x="604" y="673" type="line" name="sh09"/>
      <point x="608" y="700" type="line" name="sv02"/>
      <point x="795" y="700" type="line" name="sh10"/>
      <point x="791" y="673" type="line"/>
      <point x="720" y="673" type="line" name="sh07"/>
      <point x="645" y="570"/>
      <point x="494" y="366"/>
      <point x="418" y="263" type="qcurve" name="sh06"/>
      <point x="385" y="27" type="line" name="dh02"/>
      <point x="464" y="27" type="line" name="sh11"/>
      <point x="461" y="0" type="line"/>
      <point x="274" y="0" type="line" name="sh12"/>
    </contour>
  </outline>
</glyph>
<glyph name="bracketleft" format="1">
  <advance width="338"/>
  <unicode hex="005B"/>
  <outline>
    <contour>
      <point x="20" y="-149" type="line" name="ah01"/>
      <point x="145" y="746" type="line" name="sh01"/>
      <point x="314" y="746" type="line" name="sh02"/>
      <point x="310" y="719" type="line"/>
      <point x="171" y="719" type="line" name="sh04"/>
      <point x="53" y="-122" type="line" name="sh03"/>
      <point x="193" y="-122" type="line" name="sh05"/>
      <point x="189" y="-149" type="line"/>
    </contour>
  </outline>
</glyph>
<glyph name="backslash" format="1">
  <advance width="333"/>
  <unicode hex="005C"/>
  <outline>
    <contour>
      <point x="97" y="736" type="line" name="sh01"/>
      <point x="140" y="546"/>
      <point x="225" y="171"/>
      <point x="268" y="-19" type="qcurve" name="dh02"/>
      <point x="238" y="-19" type="line" name="sh02"/>
      <point x="195" y="171"/>
      <point x="110" y="546"/>
      <point x="67" y="736" type="qcurve" name="dh01"/>
    </contour>
  </outline>
</glyph>
<glyph name="b" format="1">
  <advance width="535"/>
  <unicode hex="0062"/>
  <outline>
    <contour>
      <point x="39" y="27" type="line" name="sv01"/>
      <point x="113" y="27" type="line" name="dh01"/>
      <point x="211" y="723" type="line" name="sh01"/>
      <point x="139" y="723" type="line" name="sh02"/>
      <point x="143" y="750" type="line" name="at01"/>
      <point x="242" y="750" type="line" name="sh04"/>
      <point x="183" y="329" type="line"/>
      <point x="181" y="315"/>
      <point x="176" y="288"/>
      <point x="173" y="274" type="qcurve" name="ih01"/>
      <point x="185" y="296"/>
      <point x="224" y="336"/>
      <point x="248.0" y="351.0" type="qcurve" smooth="yes" name="inserted"/>
      <point x="272" y="366"/>
      <point x="329" y="383"/>
      <point x="359" y="383" type="qcurve" name="at02"/>
      <point x="400" y="383"/>
      <point x="467" y="352" name="fh01"/>
      <point x="489.5" y="326.0" type="qcurve" smooth="yes" name="inserted"/>
      <point x="512" y="300" name="fh02"/>
      <point x="533" y="228"/>
      <point x="527" y="188" type="qcurve" name="dh02"/>
      <point x="521" y="147"/>
      <point x="481" y="76" name="fh03"/>
      <point x="451.0" y="50.0" type="qcurve" smooth="yes" name="inserted"/>
      <point x="421" y="24" name="fh04"/>
      <point x="346" y="-7" name="fv01"/>
      <point x="305" y="-7" type="qcurve" name="ab01"/>
      <point x="274" y="-7"/>
      <point x="222" y="10"/>
      <point x="201.5" y="25.0" type="qcurve" smooth="yes" name="inserted"/>
      <point x="181" y="40" name="fh05"/>
      <point x="154" y="80"/>
      <point x="148" y="102" type="qcurve" name="ih02"/>
      <point x="146" y="88"/>
      <point x="144" y="61"/>
      <point x="142" y="47" type="qcurve"/>
      <point x="135" y="0" type="line" name="sh03"/>
      <point x="35" y="0" type="line" name="sh05"/>
    </contour>
    <contour>
      <point x="499" y="188" type="qcurve" name="sh06"/>
      <point x="504" y="223"/>
      <point x="487" y="284" name="fh06"/>
      <point x="467.5" y="307.0" type="qcurve" smooth="yes" name="inserted"/>
      <point x="448" y="330" name="fh07"/>
      <point x="390" y="356"/>
      <point x="355" y="356" type="qcurve" name="sv02"/>
      <point x="320" y="356"/>
      <point x="255" y="330"/>
      <point x="229.0" y="307.0" type="qcurve" smooth="yes" name="inserted"/>
      <point x="203" y="284"/>
      <point x="168" y="223"/>
      <point x="163" y="188" type="qcurve" name="ih03"/>
      <point x="158" y="153"/>
      <point x="176" y="92" name="fh08"/>
      <point x="195.5" y="69.5" type="qcurve" smooth="yes" name="inserted"/>
      <point x="215" y="47" name="fh09"/>
      <point x="273" y="21"/>
      <point x="308" y="21" type="qcurve" name="sv03"/>
      <point x="343" y="21" name="fh10"/>
      <point x="408" y="47" name="fh11"/>
      <point x="433.5" y="69.5" type="qcurve" smooth="yes" name="inserted"/>
      <point x="459" y="92" name="fh12"/>
      <point x="494" y="153" name="fh13"/>
    </contour>
  </outline>
</glyph>
<glyph name="d" format="1">
  <advance width="535"/>
  <unicode hex="0064"/>
  <outline>
    <contour>
      <point x="408" y="47" type="line"/>
      <point x="410" y="61"/>
      <point x="414" y="88"/>
      <point x="416" y="102" type="qcurve" name="ih01"/>
      <point x="404" y="80"/>
      <point x="366" y="40" name="fh01"/>
      <point x="342.0" y="25.0" type="qcurve" smooth="yes" name="inserted"/>
      <point x="318" y="10" name="fv01"/>
      <point x="261" y="-7"/>
      <point x="230" y="-7" type="qcurve" name="ab01"/>
      <point x="189" y="-7"/>
      <point x="122" y="24" name="fh02"/>
      <point x="99.5" y="50.0" type="qcurve" smooth="yes" name="inserted"/>
      <point x="77" y="76"/>
      <point x="56" y="147"/>
      <point x="62" y="188" type="qcurve" name="dh01"/>
      <point x="68" y="228"/>
      <point x="108" y="300" name="fh03"/>
      <point x="138.0" y="326.0" type="qcurve" smooth="yes" name="inserted"/>
      <point x="168" y="352" name="fh04"/>
      <point x="244" y="383"/>
      <point x="285" y="383" type="qcurve" name="at02"/>
      <point x="315" y="383"/>
      <point x="367" y="366"/>
      <point x="387.0" y="351.0" type="qcurve" smooth="yes" name="inserted"/>
      <point x="407" y="336" name="fh05"/>
      <point x="434" y="296"/>
      <point x="440" y="274" type="qcurve" name="ih02"/>
      <point x="443" y="300"/>
      <point x="449" y="350"/>
      <point x="452" y="376" type="qcurve"/>
      <point x="501" y="723" type="line" name="sh02"/>
      <point x="429" y="723" type="line" name="sh03"/>
      <point x="433" y="750" type="line" name="at01"/>
      <point x="532" y="750" type="line" name="sh04"/>
      <point x="430" y="27" type="line" name="dh02"/>
      <point x="504" y="27" type="line" name="sh05"/>
      <point x="500" y="0" type="line" name="ab02"/>
      <point x="401" y="0" type="line" name="sh01"/>
    </contour>
    <contour>
      <point x="90" y="188" type="qcurve" name="sh06"/>
      <point x="85" y="153"/>
      <point x="102" y="92" name="fh06"/>
      <point x="121.5" y="69.5" type="qcurve" smooth="yes" name="inserted"/>
      <point x="141" y="47" name="fh07"/>
      <point x="198" y="21"/>
      <point x="233" y="21" type="qcurve" name="sv01"/>
      <point x="268" y="21"/>
      <point x="334" y="47" name="fv02"/>
      <point x="360.0" y="69.5" type="qcurve" smooth="yes" name="inserted"/>
      <point x="386" y="92" name="fh08"/>
      <point x="421" y="153"/>
      <point x="426" y="188" type="qcurve" name="ih03"/>
      <point x="431" y="223"/>
      <point x="413" y="284" name="fh09"/>
      <point x="393.5" y="307.0" type="qcurve" smooth="yes" name="inserted"/>
      <point x="374" y="330" name="fh10"/>
      <point x="316" y="356"/>
      <point x="281" y="356" type="qcurve" name="sv02"/>
      <point x="246" y="356"/>
      <point x="181" y="330" name="fh11"/>
      <point x="155.0" y="307.0" type="qcurve" smooth="yes" name="inserted"/>
      <point x="129" y="284" name="fh12"/>
      <point x="95" y="223"/>
    </contour>
  </outline>
</glyph>
<glyph name="e" format="1">
  <advance width="438"/>
  <unicode hex="0065"/>
  <outline>
    <contour>
      <point x="280" y="356" type="qcurve" name="sv01"/>
      <point x="239" y="356" name="fh01"/>
      <point x="166" y="320" name="fh02"/>
      <point x="139.5" y="291.0" type="qcurve" smooth="yes" name="inserted"/>
      <point x="113" y="262" name="fh03"/>
      <point x="85" y="186"/>
      <point x="89" y="147" type="qcurve" name="sh01"/>
      <point x="168" y="177"/>
      <point x="325" y="236"/>
      <point x="403" y="266" type="qcurve" name="sh02"/>
      <point x="389" y="306"/>
      <point x="325" y="356"/>
    </contour>
    <contour>
      <point x="436" y="251" type="qcurve" name="dh02"/>
      <point x="350" y="218"/>
      <point x="180" y="154"/>
      <point x="94" y="121" type="qcurve" name="sh03"/>
      <point x="107" y="76" name="fh04"/>
      <point x="180" y="21" name="fh05"/>
      <point x="233" y="21" type="qcurve" name="sv02"/>
      <point x="267" y="21"/>
      <point x="329" y="45"/>
      <point x="354" y="66" type="qcurve" name="sh04"/>
      <point x="358" y="61"/>
      <point x="365" y="51"/>
      <point x="369" y="46" type="qcurve" name="ih01"/>
      <point x="339" y="21"/>
      <point x="269" y="-7"/>
      <point x="230" y="-7" type="qcurve" name="ab01"/>
      <point x="189" y="-7"/>
      <point x="123" y="24" name="fh06"/>
      <point x="100.0" y="50.0" type="qcurve" smooth="yes" name="inserted"/>
      <point x="77" y="76"/>
      <point x="56" y="147"/>
      <point x="62" y="188" type="qcurve" name="dh01"/>
      <point x="68" y="228"/>
      <point x="108" y="300" name="fh07"/>
      <point x="138.0" y="326.0" type="qcurve" smooth="yes" name="inserted"/>
      <point x="168" y="352" name="fh08"/>
      <point x="243" y="383" name="fh09"/>
      <point x="284" y="383" type="qcurve" name="at01"/>
      <point x="344" y="383" name="fh10"/>
      <point x="425" y="309" name="fh11"/>
    </contour>
  </outline>
</glyph>
<glyph name="g" format="1">
  <advance width="536"/>
  <unicode hex="0067"/>
  <outline>
    <contour>
      <point x="492" y="375" type="qcurve" name="sh02"/>
      <point x="588" y="375" type="line" name="sh04"/>
      <point x="584" y="348" type="line" name="sv01"/>
      <point x="510" y="348" type="line" name="sh03"/>
      <point x="457" y="-26" type="line" name="dh02"/>
      <point x="449" y="-79" name="fh01"/>
      <point x="408" y="-161" name="fh02"/>
      <point x="379.0" y="-189.5" type="qcurve" smooth="yes" name="inserted"/>
      <point x="350" y="-218" name="fh03"/>
      <point x="278" y="-249"/>
      <point x="239" y="-250" type="qcurve" name="ab02"/>
      <point x="197" y="-248"/>
      <point x="117" y="-221"/>
      <point x="94" y="-190" type="qcurve" name="sh05"/>
      <point x="118" y="-171" type="line" name="sh06"/>
      <point x="138" y="-198"/>
      <point x="206" y="-222"/>
      <point x="241" y="-222" type="qcurve" name="sv02"/>
      <point x="274" y="-222" name="fh04"/>
      <point x="337" y="-194" name="fh05"/>
      <point x="362.5" y="-168.5" type="qcurve" smooth="yes" name="inserted"/>
      <point x="388" y="-143" name="fv01"/>
      <point x="424" y="-71" name="fh06"/>
      <point x="430" y="-27" type="qcurve" name="sh01"/>
      <point x="440" y="47" type="line"/>
      <point x="442" y="61"/>
      <point x="448" y="87"/>
      <point x="450" y="101" type="qcurve" name="ih01"/>
      <point x="425" y="56" name="fh07"/>
      <point x="325" y="-6"/>
      <point x="264" y="-6" type="qcurve" name="ab01"/>
      <point x="223" y="-6"/>
      <point x="156" y="24" name="fh08"/>
      <point x="133.5" y="50.5" type="qcurve" smooth="yes" name="inserted"/>
      <point x="111" y="77"/>
      <point x="90" y="147"/>
      <point x="96" y="188" type="qcurve" name="dh01"/>
      <point x="102" y="228" name="fh09"/>
      <point x="142" y="299" name="fh10"/>
      <point x="172.0" y="325.5" type="qcurve" smooth="yes" name="inserted"/>
      <point x="202" y="352" name="fh11"/>
      <point x="278" y="383" name="fh12"/>
      <point x="319" y="383" type="qcurve" name="at01"/>
      <point x="349" y="383"/>
      <point x="400" y="366" name="fh13"/>
      <point x="420.0" y="351.0" type="qcurve" smooth="yes" name="inserted"/>
      <point x="440" y="336" name="fh14"/>
      <point x="468" y="296"/>
      <point x="474" y="274" type="qcurve" name="ih02"/>
      <point x="478" y="299"/>
      <point x="487" y="349"/>
    </contour>
    <contour>
      <point x="124" y="188" type="qcurve" name="sh07"/>
      <point x="119" y="153"/>
      <point x="136" y="92" name="fh15"/>
      <point x="155.5" y="69.5" type="qcurve" smooth="yes" name="inserted"/>
      <point x="175" y="47" name="fh16"/>
      <point x="233" y="21" name="fh17"/>
      <point x="268" y="21" type="qcurve" name="sv03"/>
      <point x="303" y="21"/>
      <point x="368" y="47" name="fh18"/>
      <point x="394.0" y="69.5" type="qcurve" smooth="yes" name="inserted"/>
      <point x="420" y="92"/>
      <point x="455" y="153" name="fh19"/>
      <point x="460" y="188" type="qcurve" name="ih03"/>
      <point x="465" y="223"/>
      <point x="447" y="284" name="fh20"/>
      <point x="427.5" y="307.0" type="qcurve" smooth="yes" name="inserted"/>
      <point x="408" y="330" name="fh21"/>
      <point x="350" y="356"/>
      <point x="315" y="356" type="qcurve" name="sv04"/>
      <point x="280" y="356"/>
      <point x="215" y="330" name="fh22"/>
      <point x="189.0" y="307.0" type="qcurve" smooth="yes" name="inserted"/>
      <point x="163" y="284" name="fh23"/>
      <point x="129" y="223" name="fh24"/>
    </contour>
  </outline>
</glyph>
<glyph name="k" format="1">
  <advance width="495"/>
  <unicode hex="006B"/>
  <outline>
    <contour>
      <point x="284" y="27" type="line" name="sv02"/>
      <point x="344" y="27" type="line" name="sh02"/>
      <point x="316" y="73"/>
      <point x="261" y="165"/>
      <point x="234" y="212" type="qcurve" name="sh03"/>
      <point x="156" y="147" type="line" name="ih02"/>
      <point x="139" y="27" type="line" name="sh04"/>
      <point x="222" y="27" type="line"/>
      <point x="219" y="0" type="line"/>
      <point x="35" y="0" type="line" name="sh06"/>
      <point x="38" y="27" type="line" name="sv01"/>
      <point x="111" y="27" type="line" name="dh01"/>
      <point x="209" y="723" type="line" name="sh07"/>
      <point x="137" y="723" type="line" name="sh08"/>
      <point x="141" y="750" type="line" name="at02"/>
      <point x="241" y="750" type="line" name="sh05"/>
      <point x="161" y="183" type="line" name="ih03"/>
      <point x="360" y="348" type="line" name="sh09"/>
      <point x="292" y="348" type="line" name="sh10"/>
      <point x="296" y="375" type="line" name="at01"/>
      <point x="475" y="375" type="line" name="sh11"/>
      <point x="472" y="348" type="line"/>
      <point x="396" y="348" type="line" name="dh02"/>
      <point x="358" y="316"/>
      <point x="296" y="263"/>
      <point x="258" y="231" type="qcurve" name="ih01"/>
      <point x="287" y="180"/>
      <point x="348" y="78"/>
      <point x="378" y="27" type="qcurve" name="sh01"/>
      <point x="463" y="27" type="line" name="sh12"/>
      <point x="460" y="0" type="line"/>
      <point x="281" y="0" type="line" name="sh13"/>
    </contour>
  </outline>
</glyph>
<glyph name="m" format="1">
  <advance width="814"/>
  <unicode hex="006D"/>
  <outline>
    <contour>
      <point x="598" y="27" type="line" name="sv03"/>
      <point x="677" y="27" type="line" name="sh01"/>
      <point x="711" y="268" type="line" name="sh02"/>
      <point x="714" y="303" name="fh01"/>
      <point x="675" y="353" name="fh02"/>
      <point x="632" y="355" type="qcurve" name="sv05"/>
      <point x="600" y="355"/>
      <point x="540" y="334"/>
      <point x="515.5" y="316.0" type="qcurve" smooth="yes" name="inserted"/>
      <point x="491" y="298"/>
      <point x="457" y="247"/>
      <point x="451" y="217" type="qcurve" name="sh03"/>
      <point x="424" y="27" type="line" name="ih01"/>
      <point x="502" y="27" type="line" name="sh04"/>
      <point x="499" y="0" type="line"/>
      <point x="315" y="0" type="line" name="sh06"/>
      <point x="318" y="27" type="line" name="sv02"/>
      <point x="397" y="27" type="line" name="sh05"/>
      <point x="430" y="268" type="line" name="sh07"/>
      <point x="434" y="303" name="fh03"/>
      <point x="394" y="353" name="fh04"/>
      <point x="352" y="355" type="qcurve" name="sv04"/>
      <point x="320" y="355"/>
      <point x="258" y="334"/>
      <point x="233.5" y="315.0" type="qcurve" smooth="yes" name="inserted"/>
      <point x="209" y="296"/>
      <point x="175" y="243"/>
      <point x="170" y="212" type="qcurve" name="sh09"/>
      <point x="144" y="27" type="line" name="sh08"/>
      <point x="222" y="27" type="line" name="sh10"/>
      <point x="219" y="0" type="line"/>
      <point x="35" y="0" type="line" name="sh11"/>
      <point x="38" y="27" type="line" name="sv01"/>
      <point x="116" y="27" type="line" name="dh01"/>
      <point x="162" y="348" type="line" name="sh12"/>
      <point x="88" y="348" type="line" name="sh13"/>
      <point x="92" y="375" type="line" name="at01"/>
      <point x="186" y="375" type="line" name="sh15"/>
      <point x="182" y="331" type="line"/>
      <point x="180" y="316"/>
      <point x="178" y="292"/>
      <point x="176" y="277" type="qcurve" name="sh14"/>
      <point x="204" y="325"/>
      <point x="299" y="382"/>
      <point x="356" y="382" type="qcurve" name="at02"/>
      <point x="406" y="382" name="fh05"/>
      <point x="460" y="327" name="fh06"/>
      <point x="459" y="282" type="qcurve" name="sh16"/>
      <point x="487" y="327"/>
      <point x="581" y="382"/>
      <point x="636" y="382" type="qcurve" name="sv06"/>
      <point x="690" y="382" name="fv01"/>
      <point x="745" y="320"/>
      <point x="739" y="270" type="qcurve" name="sh17"/>
      <point x="705" y="27" type="line" name="dh02"/>
      <point x="782" y="27" type="line" name="sh18"/>
      <point x="779" y="0" type="line"/>
      <point x="595" y="0" type="line" name="sh19"/>
    </contour>
  </outline>
</glyph>
<glyph name="o" format="1">
  <advance width="463"/>
  <unicode hex="006F"/>
  <outline>
    <contour>
      <point x="63" y="188" type="qcurve" name="dh01"/>
      <point x="69" y="228" name="fh01"/>
      <point x="109" y="300" name="fh02"/>
      <point x="139.0" y="326.5" type="qcurve" smooth="yes" name="inserted"/>
      <point x="169" y="353" name="fh03"/>
      <point x="244" y="384"/>
      <point x="285" y="384" type="qcurve" name="at01"/>
      <point x="326" y="384" name="fh04"/>
      <point x="393" y="353" name="fh05"/>
      <point x="416.5" y="326.5" type="qcurve" smooth="yes" name="inserted"/>
      <point x="440" y="300"/>
      <point x="461" y="228"/>
      <point x="455" y="188" type="qcurve" name="dh02"/>
      <point x="449" y="147" name="fh06"/>
      <point x="409" y="76" name="fh07"/>
      <point x="378.5" y="50.0" type="qcurve" smooth="yes" name="inserted"/>
      <point x="348" y="24" name="fh08"/>
      <point x="272" y="-7"/>
      <point x="231" y="-7" type="qcurve" name="ab01"/>
      <point x="190" y="-7"/>
      <point x="123" y="24" name="fv01"/>
      <point x="100.5" y="50.0" type="qcurve" smooth="yes" name="inserted"/>
      <point x="78" y="76"/>
      <point x="57" y="147"/>
    </contour>
    <contour>
      <point x="91" y="188" type="qcurve" name="sh01"/>
      <point x="86" y="153"/>
      <point x="103" y="92" name="fh09"/>
      <point x="122.5" y="69.5" type="qcurve" smooth="yes" name="inserted"/>
      <point x="142" y="47" name="fh10"/>
      <point x="199" y="21" name="fh11"/>
      <point x="234" y="21" type="qcurve" name="sv01"/>
      <point x="268" y="21"/>
      <point x="333" y="47" name="fv02"/>
      <point x="359.5" y="69.5" type="qcurve" smooth="yes" name="inserted"/>
      <point x="386" y="92" name="fh12"/>
      <point x="421" y="153"/>
      <point x="426" y="188" type="qcurve" name="sh02"/>
      <point x="431" y="223"/>
      <point x="413" y="284" name="fh13"/>
      <point x="393.5" y="307.0" type="qcurve" smooth="yes" name="inserted"/>
      <point x="374" y="330" name="fh14"/>
      <point x="316" y="356"/>
      <point x="281" y="356" type="qcurve" name="sv02"/>
      <point x="246" y="356"/>
      <point x="182" y="330" name="fh15"/>
      <point x="156.0" y="307.0" type="qcurve" smooth="yes" name="inserted"/>
      <point x="130" y="284" name="fh16"/>
      <point x="96" y="223"/>
    </contour>
  </outline>
</glyph>
<glyph name="r" format="1">
  <advance width="335"/>
  <unicode hex="0072"/>
  <outline>
    <contour>
      <point x="38" y="27" type="line" name="sv01"/>
      <point x="116" y="27" type="line" name="dh01"/>
      <point x="162" y="348" type="line" name="sh01"/>
      <point x="88" y="348" type="line" name="sh02"/>
      <point x="92" y="375" type="line" name="at01"/>
      <point x="186" y="375" type="line" name="sh04"/>
      <point x="182" y="331" type="line"/>
      <point x="180" y="316"/>
      <point x="178" y="292"/>
      <point x="176" y="277" type="qcurve" name="ih01"/>
      <point x="205" y="326"/>
      <point x="302" y="381" name="fh01"/>
      <point x="353" y="382" type="qcurve" name="dh02"/>
      <point x="348" y="355" type="line" name="sv02"/>
      <point x="316" y="354" name="fh02"/>
      <point x="255" y="332" name="fh03"/>
      <point x="231.0" y="313.0" type="qcurve" smooth="yes" name="inserted"/>
      <point x="207" y="294"/>
      <point x="174" y="242"/>
      <point x="170" y="212" type="qcurve" name="ih02"/>
      <point x="144" y="27" type="line" name="sh03"/>
      <point x="222" y="27" type="line" name="sh05"/>
      <point x="219" y="0" type="line"/>
      <point x="35" y="0" type="line" name="sh06"/>
    </contour>
  </outline>
</glyph>
<glyph name="s" format="1">
  <advance width="318"/>
  <unicode hex="0073"/>
  <outline>
    <contour>
      <point x="93" y="97" type="line" name="sh03"/>
      <point x="86" y="42" type="line" name="sh02"/>
      <point x="104" y="27"/>
      <point x="152" y="19"/>
      <point x="175" y="19" type="qcurve" name="sv01"/>
      <point x="187" y="19"/>
      <point x="219" y="29"/>
      <point x="233.5" y="39.0" type="qcurve" smooth="yes" name="inserted"/>
      <point x="248" y="49" name="fh01"/>
      <point x="271" y="79"/>
      <point x="274" y="100" type="qcurve" name="sh04"/>
      <point x="278" y="128"/>
      <point x="254" y="159"/>
      <point x="234.0" y="168.5" type="qcurve" smooth="yes" name="inserted"/>
      <point x="214" y="178"/>
      <point x="166" y="191" name="sv02"/>
      <point x="146.0" y="201.0" type="qcurve" smooth="yes" name="inserted"/>
      <point x="126" y="211" name="fh02"/>
      <point x="102" y="246"/>
      <point x="107" y="278" type="qcurve" name="dh01"/>
      <point x="110" y="303" name="fh03"/>
      <point x="134" y="341" name="fh04"/>
      <point x="151.0" y="354.0" type="qcurve" smooth="yes" name="inserted"/>
      <point x="168" y="367" name="fh05"/>
      <point x="207" y="380"/>
      <point x="226" y="380" type="qcurve" name="at01"/>
      <point x="228" y="380"/>
      <point x="252" y="379"/>
      <point x="267.0" y="376.0" type="qcurve" smooth="yes" name="inserted"/>
      <point x="282" y="373"/>
      <point x="313" y="360"/>
      <point x="322" y="348" type="qcurve" name="sh05"/>
      <point x="312" y="278" type="line" name="sh06"/>
      <point x="286" y="278" type="line" name="sh08"/>
      <point x="294" y="334" type="line" name="sh07"/>
      <point x="287" y="341"/>
      <point x="264" y="349"/>
      <point x="253.0" y="350.5" type="qcurve" smooth="yes" name="inserted"/>
      <point x="242" y="352"/>
      <point x="224" y="353" name="sv03"/>
      <point x="221" y="353" type="qcurve"/>
      <point x="209" y="353"/>
      <point x="181" y="345"/>
      <point x="168.5" y="337.0" type="qcurve" smooth="yes" name="inserted"/>
      <point x="156" y="329"/>
      <point x="138" y="301"/>
      <point x="135" y="282" type="qcurve" name="sh09"/>
      <point x="132" y="256"/>
      <point x="156" y="228"/>
      <point x="176.5" y="219.0" type="qcurve" smooth="yes" name="inserted"/>
      <point x="197" y="210" name="iv01"/>
      <point x="244" y="196" name="fh06"/>
      <point x="264.0" y="184.5" type="qcurve" smooth="yes" name="inserted"/>
      <point x="284" y="173" name="fh07"/>
      <point x="307" y="136" name="fh08"/>
      <point x="303" y="103" type="qcurve" name="dh02"/>
      <point x="300" y="85"/>
      <point x="281" y="46" name="fh09"/>
      <point x="264.5" y="29.5" type="qcurve" smooth="yes" name="inserted"/>
      <point x="248" y="13" name="fh10"/>
      <point x="200" y="-8"/>
      <point x="169" y="-8" type="qcurve" name="ab01"/>
      <point x="161" y="-8"/>
      <point x="133" y="-6"/>
      <point x="116.5" y="-2.0" type="qcurve" smooth="yes" name="inserted"/>
      <point x="100" y="2"/>
      <point x="68" y="15"/>
      <point x="58" y="27" type="qcurve" name="sh01"/>
      <point x="67" y="97" type="line" name="sh10"/>
    </contour>
  </outline>
</glyph>
<glyph name="u" format="1">
  <advance width="528"/>
  <unicode hex="0075"/>
  <outline>
    <contour>
      <point x="88" y="375" type="line" name="at01"/>
      <point x="192" y="375" type="line" name="sh02"/>
      <point x="155" y="107" type="line" name="sh01"/>
      <point x="152" y="72" name="fh01"/>
      <point x="191" y="22" name="fh02"/>
      <point x="233" y="20" type="qcurve" name="sv01"/>
      <point x="265" y="20"/>
      <point x="327" y="41" name="fh03"/>
      <point x="352.0" y="60.0" type="qcurve" smooth="yes" name="inserted"/>
      <point x="377" y="79" name="fh04"/>
      <point x="410" y="132"/>
      <point x="415" y="163" type="qcurve" name="ih01"/>
      <point x="441" y="348" type="line" name="sh03"/>
      <point x="364" y="348" type="line" name="sh05"/>
      <point x="368" y="375" type="line" name="sv02"/>
      <point x="472" y="375" type="line" name="dh02"/>
      <point x="423" y="25" type="line" name="sh06"/>
      <point x="497" y="25" type="line" name="sh07"/>
      <point x="494" y="0" type="line"/>
      <point x="398" y="0" type="line" name="sh04"/>
      <point x="404" y="53" type="line"/>
      <point x="409" y="98" type="line" name="ih02"/>
      <point x="382" y="50" name="fh05"/>
      <point x="286" y="-7"/>
      <point x="230" y="-7" type="qcurve" name="ab01"/>
      <point x="176" y="-7" name="fh06"/>
      <point x="121" y="55" name="fh07"/>
      <point x="126" y="105" type="qcurve" name="dh01"/>
      <point x="161" y="348" type="line" name="sh08"/>
      <point x="84" y="348" type="line" name="sh09"/>
    </contour>
  </outline>
</glyph>
<glyph name="v" format="1">
  <advance width="589"/>
  <unicode hex="0076"/>
  <outline>
    <contour>
      <point x="90" y="375" type="line" name="at01"/>
      <point x="263" y="375" type="line" name="sh02"/>
      <point x="259" y="348" type="line"/>
      <point x="190" y="348" type="line" name="sh01"/>
      <point x="219" y="269"/>
      <point x="277" y="110"/>
      <point x="304" y="30" type="qcurve" name="sh03"/>
      <point x="350" y="105"/>
      <point x="454" y="267"/>
      <point x="506" y="348" type="qcurve" name="sh04"/>
      <point x="448" y="348" type="line" name="sh05"/>
      <point x="452" y="375" type="line" name="sv01"/>
      <point x="609" y="375" type="line" name="sh06"/>
      <point x="605" y="348" type="line"/>
      <point x="536" y="348" type="line" name="dh02"/>
      <point x="476" y="254"/>
      <point x="356" y="71" name="fh01"/>
      <point x="297" y="-23" type="qcurve" name="ih01"/>
      <point x="262" y="71"/>
      <point x="194" y="254"/>
      <point x="161" y="348" type="qcurve" name="dh01"/>
      <point x="86" y="348" type="line" name="sh07"/>
    </contour>
  </outline>
</glyph>
<glyph name="y" format="1">
  <advance width="595"/>
  <unicode hex="0079"/>
  <outline>
    <contour>
      <point x="95" y="-223" type="line" name="sv01"/>
      <point x="178" y="-223" type="line" name="sh01"/>
      <point x="213" y="-168"/>
      <point x="284" y="-57"/>
      <point x="319" y="-3" type="qcurve" name="ih01"/>
      <point x="287" y="85"/>
      <point x="224" y="260"/>
      <point x="193" y="348" type="qcurve" name="dh01"/>
      <point x="118" y="348" type="line" name="sh03"/>
      <point x="122" y="375" type="line" name="at01"/>
      <point x="295" y="375" type="line" name="sh05"/>
      <point x="291" y="348" type="line"/>
      <point x="224" y="348" type="line" name="sh04"/>
      <point x="253" y="267"/>
      <point x="311" y="107"/>
      <point x="339" y="26" type="qcurve" name="ih02"/>
      <point x="387" y="104" name="fh01"/>
      <point x="491" y="267"/>
      <point x="543" y="348" type="qcurve" name="sh02"/>
      <point x="487" y="348" type="line" name="sh06"/>
      <point x="490" y="375" type="line" name="sv02"/>
      <point x="647" y="375" type="line" name="sh07"/>
      <point x="644" y="348" type="line"/>
      <point x="574" y="348" type="line" name="dh02"/>
      <point x="482" y="205"/>
      <point x="301" y="-80" name="fh02"/>
      <point x="210" y="-223" type="qcurve" name="sh08"/>
      <point x="279" y="-223" type="line" name="sh09"/>
      <point x="276" y="-250" type="line"/>
      <point x="92" y="-250" type="line" name="sh10"/>
    </contour>
  </outline>
</glyph>
<glyph name="braceleft" format="1">
  <advance width="282"/>
  <unicode hex="007B"/>
  <outline>
    <contour>
      <point x="90" y="281" type="qcurve" name="dh01"/>
      <point x="96" y="316" type="line" name="iv01"/>
      <point x="120" y="317"/>
      <point x="155" y="344"/>
      <point x="166.5" y="364.0" type="qcurve" smooth="yes" name="inserted"/>
      <point x="178" y="384"/>
      <point x="191" y="431"/>
      <point x="194" y="451" type="qcurve" name="ih02"/>
      <point x="218" y="628" type="line" name="ih01"/>
      <point x="224" y="674" name="fh01"/>
      <point x="247" y="722" name="fh02"/>
      <point x="261.5" y="732.5" type="qcurve" smooth="yes" name="inserted"/>
      <point x="276" y="743"/>
      <point x="309" y="746"/>
      <point x="327" y="746" type="qcurve"/>
      <point x="370" y="746" type="line" name="dh02"/>
      <point x="366" y="719" type="line" name="sv01"/>
      <point x="311" y="719" type="line"/>
      <point x="280" y="719"/>
      <point x="252" y="670" name="fh03"/>
      <point x="244" y="608" type="qcurve" name="sh02"/>
      <point x="223" y="463" type="line" name="ih03"/>
      <point x="217" y="419"/>
      <point x="198" y="362"/>
      <point x="186.5" y="344.0" type="qcurve" smooth="yes" name="inserted"/>
      <point x="175" y="326" name="fh04"/>
      <point x="148" y="306"/>
      <point x="134" y="299" type="qcurve" name="sh04"/>
      <point x="146" y="292"/>
      <point x="166" y="271" name="fh05"/>
      <point x="173.0" y="252.5" type="qcurve" smooth="yes" name="inserted"/>
      <point x="180" y="234" name="fh06"/>
      <point x="183" y="178"/>
      <point x="177" y="135" type="qcurve" name="ih04"/>
      <point x="157" y="-11" type="line" name="sh03"/>
      <point x="149" y="-72"/>
      <point x="162" y="-121"/>
      <point x="193" y="-121" type="qcurve"/>
      <point x="248" y="-121" type="line" name="sh05"/>
      <point x="244" y="-148" type="line" name="av01"/>
      <point x="201" y="-148" type="line"/>
      <point x="181" y="-148"/>
      <point x="148" y="-145" name="fh07"/>
      <point x="137.5" y="-131.5" type="qcurve" smooth="yes" name="inserted"/>
      <point x="127" y="-118" name="fh08"/>
      <point x="122" y="-58"/>
      <point x="130" y="-1" type="qcurve" name="sh01"/>
      <point x="150" y="146" type="line" name="ih05"/>
      <point x="153" y="166"/>
      <point x="153" y="213" name="fh09"/>
      <point x="147.0" y="233.0" type="qcurve" smooth="yes" name="inserted"/>
      <point x="141" y="253"/>
      <point x="114" y="280"/>
    </contour>
  </outline>
</glyph>
<glyph name="braceright" format="1">
  <advance width="320"/>
  <unicode hex="007D"/>
  <outline>
    <contour>
      <point x="356" y="316" type="qcurve" name="dh02"/>
      <point x="350" y="281" type="line" name="sv01"/>
      <point x="320" y="279"/>
      <point x="283" y="241" name="fh01"/>
      <point x="272.0" y="215.0" type="qcurve" smooth="yes" name="inserted"/>
      <point x="261" y="189"/>
      <point x="251" y="135"/>
      <point x="248" y="117" type="qcurve" name="ih02"/>
      <point x="228" y="-30" type="line" name="ih01"/>
      <point x="222" y="-76"/>
      <point x="199" y="-125" name="fh02"/>
      <point x="184.5" y="-135.5" type="qcurve" smooth="yes" name="inserted"/>
      <point x="170" y="-146" name="fh03"/>
      <point x="137" y="-148"/>
      <point x="119" y="-148" type="qcurve"/>
      <point x="76" y="-148" type="line" name="dh01"/>
      <point x="80" y="-121" type="line" name="sv02"/>
      <point x="135" y="-121" type="line"/>
      <point x="166" y="-121"/>
      <point x="194" y="-72" name="fh04"/>
      <point x="202" y="-11" type="qcurve" name="sh02"/>
      <point x="227" y="165" type="line" name="ih03"/>
      <point x="232" y="198" name="fh05"/>
      <point x="252" y="244" name="fh06"/>
      <point x="264.0" y="259.5" type="qcurve" smooth="yes" name="inserted"/>
      <point x="276" y="275"/>
      <point x="302" y="293"/>
      <point x="312" y="299" type="qcurve" name="sh04"/>
      <point x="300" y="306"/>
      <point x="279" y="326"/>
      <point x="272.5" y="344.0" type="qcurve" smooth="yes" name="inserted"/>
      <point x="266" y="362"/>
      <point x="263" y="419"/>
      <point x="269" y="463" type="qcurve" name="ih04"/>
      <point x="289" y="608" type="line" name="sh03"/>
      <point x="297" y="670"/>
      <point x="284" y="719"/>
      <point x="253" y="719" type="qcurve"/>
      <point x="199" y="719" type="line" name="sh05"/>
      <point x="202" y="746" type="line" name="av01"/>
      <point x="245" y="746" type="line"/>
      <point x="263" y="746"/>
      <point x="295" y="744" name="fh07"/>
      <point x="306.5" y="733.5" type="qcurve" smooth="yes" name="inserted"/>
      <point x="318" y="723" name="fh08"/>
      <point x="326" y="674"/>
      <point x="320" y="628" type="qcurve" name="sh01"/>
      <point x="300" y="480" type="line" name="ih05"/>
      <point x="297" y="462"/>
      <point x="292" y="407"/>
      <point x="295.5" y="381.5" type="qcurve" smooth="yes" name="inserted"/>
      <point x="299" y="356" name="fh09"/>
      <point x="326" y="317"/>
    </contour>
  </outline>
</glyph>
<glyph name="cent" format="1">
  <advance width="385"/>
  <unicode hex="00A2"/>
  <outline>
    <contour>
      <point x="354" y="57" type="qcurve" name="sh02"/>
      <point x="369" y="36" type="line" name="sh01"/>
      <point x="341" y="16"/>
      <point x="279" y="-5"/>
      <point x="244" y="-6" type="qcurve" name="ih03"/>
      <point x="236" y="-68" type="line" name="sh03"/>
      <point x="208" y="-68" type="line" name="ih01"/>
      <point x="216" y="-4" type="line" name="ih04"/>
      <point x="180" y="0"/>
      <point x="122" y="33" name="fh01"/>
      <point x="102.5" y="58.5" type="qcurve" smooth="yes" name="inserted"/>
      <point x="83" y="84" name="fh02"/>
      <point x="66" y="150"/>
      <point x="71" y="188" type="qcurve" name="dh01"/>
      <point x="77" y="225"/>
      <point x="113" y="292" name="fh03"/>
      <point x="139.5" y="318.0" type="qcurve" smooth="yes" name="inserted"/>
      <point x="166" y="344" name="fh04"/>
      <point x="234" y="377" name="fh05"/>
      <point x="271" y="381" type="qcurve" name="ih05"/>
      <point x="279" y="438" type="line" name="sh04"/>
      <point x="307" y="438" type="line" name="ih02"/>
      <point x="299" y="383" type="line" name="ih06"/>
      <point x="333" y="382" name="fh06"/>
      <point x="391" y="360" name="fv01"/>
      <point x="412" y="340" type="qcurve" name="dh02"/>
      <point x="411.5" y="339.5" name="inserted"/>
      <point x="411.0" y="339.0"/>
      <point x="411" y="339" type="qcurve"/>
      <point x="411" y="333" type="line"/>
      <point x="398" y="247" type="line" name="sh05"/>
      <point x="372" y="247" type="line" name="sh06"/>
      <point x="384" y="324" type="line" name="sh07"/>
      <point x="366" y="338" name="fh07"/>
      <point x="321" y="355"/>
      <point x="295" y="355" type="qcurve" name="ih07"/>
      <point x="248" y="21" type="line" name="ih08"/>
      <point x="277" y="22"/>
      <point x="331" y="41"/>
    </contour>
    <contour>
      <point x="99" y="188" type="qcurve" name="sh08"/>
      <point x="94" y="156"/>
      <point x="109" y="100"/>
      <point x="125.0" y="78.0" type="qcurve" smooth="yes" name="inserted"/>
      <point x="141" y="56" name="fh08"/>
      <point x="190" y="27"/>
      <point x="220" y="23" type="qcurve" name="ih09"/>
      <point x="267" y="352" type="line" name="ih10"/>
      <point x="235" y="349"/>
      <point x="178" y="320"/>
      <point x="155.5" y="298.5" type="qcurve" smooth="yes" name="inserted"/>
      <point x="133" y="277"/>
      <point x="103" y="220"/>
    </contour>
  </outline>
</glyph>
<glyph name="sterling" format="1">
  <advance width="574"/>
  <unicode hex="00A3"/>
  <outline>
    <contour>
      <point x="498" y="0" type="line" name="sh02"/>
      <point x="27" y="0" type="line" name="dh01"/>
      <point x="30" y="27" type="line" name="sv01"/>
      <point x="74" y="27" type="line"/>
      <point x="91" y="27"/>
      <point x="114" y="40"/>
      <point x="121.5" y="56.0" type="qcurve" smooth="yes" name="inserted"/>
      <point x="129" y="72"/>
      <point x="140" y="126"/>
      <point x="146" y="167" type="qcurve" name="sh03"/>
      <point x="165" y="303" type="line" name="ih01"/>
      <point x="100" y="303" type="line" name="sh04"/>
      <point x="103" y="331" type="line"/>
      <point x="168" y="331" type="line" name="ih02"/>
      <point x="193" y="500" type="line" name="sh05"/>
      <point x="203" y="570" name="fh01"/>
      <point x="305" y="634" name="fh02"/>
      <point x="383" y="634" type="qcurve" name="av01"/>
      <point x="450" y="634" name="fv01"/>
      <point x="514" y="583"/>
      <point x="528" y="543" type="qcurve" name="dh02"/>
      <point x="505" y="531" type="line" name="sh06"/>
      <point x="497" y="551"/>
      <point x="477" y="580"/>
      <point x="463.0" y="589.0" type="qcurve" smooth="yes" name="inserted"/>
      <point x="449" y="598"/>
      <point x="408" y="607"/>
      <point x="379" y="607" type="qcurve" name="sv02"/>
      <point x="338" y="607"/>
      <point x="281" y="590"/>
      <point x="262.0" y="575.5" type="qcurve" smooth="yes" name="inserted"/>
      <point x="243" y="561" name="fh03"/>
      <point x="223" y="522"/>
      <point x="220" y="499" type="qcurve" name="sh08"/>
      <point x="196" y="331" type="line" name="ih03"/>
      <point x="323" y="331" type="line" name="sh09"/>
      <point x="319" y="303" type="line"/>
      <point x="193" y="303" type="line" name="sh07"/>
      <point x="167" y="120" type="line" name="sh10"/>
      <point x="162" y="91"/>
      <point x="148" y="41"/>
      <point x="131" y="27" type="qcurve" name="sv03"/>
      <point x="473" y="27" type="line" name="sh12"/>
      <point x="489" y="134" type="line" name="sh11"/>
      <point x="517" y="134" type="line" name="sh01"/>
    </contour>
  </outline>
</glyph>
<glyph name="currency" format="1">
  <advance width="500"/>
  <unicode hex="00A4"/>
  <outline>
    <contour>
      <point x="157" y="361" type="qcurve" name="sh01"/>
      <point x="154" y="338"/>
      <point x="166" y="298" name="fh01"/>
      <point x="179.0" y="283.0" type="qcurve" smooth="yes" name="inserted"/>
      <point x="192" y="268" name="fh02"/>
      <point x="229" y="250"/>
      <point x="252" y="250" type="qcurve" name="sv01"/>
      <point x="275" y="250"/>
      <point x="317" y="268"/>
      <point x="334.0" y="283.0" type="qcurve" smooth="yes" name="inserted"/>
      <point x="351" y="298"/>
      <point x="374" y="338"/>
      <point x="377" y="361" type="qcurve" name="sh02"/>
      <point x="380" y="384"/>
      <point x="369" y="424" name="fh03"/>
      <point x="356.0" y="439.0" type="qcurve" smooth="yes" name="inserted"/>
      <point x="343" y="454" name="fh04"/>
      <point x="305" y="472"/>
      <point x="283" y="472" type="qcurve" name="sv03"/>
      <point x="260" y="472"/>
      <point x="218" y="454"/>
      <point x="200.5" y="439.0" type="qcurve" smooth="yes" name="inserted"/>
      <point x="183" y="424"/>
      <point x="160" y="384"/>
    </contour>
    <contour>
      <point x="129" y="361" type="qcurve" name="dh01"/>
      <point x="132.5" y="385.0" name="inserted"/>
      <point x="154.0" y="427.5"/>
      <point x="172" y="446" type="qcurve" name="ih01"/>
      <point x="164" y="455"/>
      <point x="149" y="472"/>
      <point x="141" y="481" type="qcurve" name="sh03"/>
      <point x="163" y="501" type="line" name="sh04"/>
      <point x="194" y="466" type="line" name="ih02"/>
      <point x="214" y="481"/>
      <point x="261" y="499"/>
      <point x="286" y="499" type="qcurve" name="sv02"/>
      <point x="312" y="499"/>
      <point x="354" y="481"/>
      <point x="370" y="465" type="qcurve" name="ih03"/>
      <point x="410" y="500" type="line" name="sh06"/>
      <point x="427" y="481" type="line" name="sh05"/>
      <point x="388" y="446" type="line" name="ih04"/>
      <point x="399" y="429"/>
      <point x="409" y="385"/>
      <point x="405" y="361" type="qcurve" name="dh02"/>
      <point x="402" y="335"/>
      <point x="377" y="291" name="fh05"/>
      <point x="360" y="273" type="qcurve" name="ih05"/>
      <point x="393" y="235" type="line" name="sh07"/>
      <point x="370" y="215" type="line" name="sh08"/>
      <point x="362" y="225"/>
      <point x="345" y="243"/>
      <point x="337" y="253" type="qcurve" name="ih06"/>
      <point x="316.5" y="238.0" name="inserted"/>
      <point x="272.0" y="223.0"/>
      <point x="248" y="223" type="qcurve" name="av01"/>
      <point x="224" y="223"/>
      <point x="182" y="238"/>
      <point x="166" y="252" type="qcurve" name="ih07"/>
      <point x="124" y="214" type="line" name="sh10"/>
      <point x="107" y="234" type="line" name="sh09"/>
      <point x="150" y="272" type="line" name="ih08"/>
      <point x="136.5" y="290.0" name="inserted"/>
      <point x="126.0" y="334.5"/>
    </contour>
  </outline>
</glyph>
<glyph name="brokenbar" format="1">
  <advance width="215"/>
  <unicode hex="00A6"/>
  <outline>
    <contour>
      <point x="123" y="-233" type="line" name="sh01"/>
      <point x="95" y="-233" type="line" name="ah01"/>
      <point x="144" y="117" type="line" name="sh02"/>
      <point x="172" y="117" type="line" name="sh03"/>
    </contour>
    <contour>
      <point x="204" y="350" type="line" name="sh05"/>
      <point x="176" y="350" type="line" name="sh04"/>
      <point x="226" y="700" type="line" name="sh06"/>
      <point x="254" y="700" type="line" name="sh07"/>
    </contour>
  </outline>
</glyph>
<glyph name="copyright" format="1">
  <advance width="793"/>
  <unicode hex="00A9"/>
  <outline>
    <contour>
      <point x="401" y="135" type="qcurve" name="sv01"/>
      <point x="450" y="135"/>
      <point x="543" y="171" name="fh01"/>
      <point x="579.5" y="202.5" type="qcurve" smooth="yes" name="inserted"/>
      <point x="616" y="234" name="fh02"/>
      <point x="666" y="321" name="fh03"/>
      <point x="673" y="371" type="qcurve" name="sh02"/>
      <point x="680" y="423"/>
      <point x="655" y="510" name="fh04"/>
      <point x="627.0" y="542.0" type="qcurve" smooth="yes" name="inserted"/>
      <point x="599" y="574" name="fh05"/>
      <point x="517" y="610" name="fh06"/>
      <point x="468" y="610" type="qcurve" name="sv02"/>
      <point x="419" y="610"/>
      <point x="328" y="574" name="fh07"/>
      <point x="291.5" y="542.0" type="qcurve" smooth="yes" name="inserted"/>
      <point x="255" y="510" name="fh08"/>
      <point x="205" y="423"/>
      <point x="198" y="371" type="qcurve" name="sh03"/>
      <point x="191" y="321"/>
      <point x="216" y="234" name="fh09"/>
      <point x="243.5" y="202.5" type="qcurve" smooth="yes" name="inserted"/>
      <point x="271" y="171" name="fh10"/>
      <point x="352" y="135"/>
    </contour>
    <contour>
      <point x="400" y="117" type="qcurve" name="av02"/>
      <point x="346" y="117"/>
      <point x="258" y="155" name="fh11"/>
      <point x="228.0" y="189.0" type="qcurve" smooth="yes" name="inserted"/>
      <point x="198" y="223" name="fh12"/>
      <point x="171" y="317"/>
      <point x="179" y="372" type="qcurve" name="ah01"/>
      <point x="187" y="427"/>
      <point x="240" y="521"/>
      <point x="279.0" y="555.5" type="qcurve" smooth="yes" name="inserted"/>
      <point x="318" y="590"/>
      <point x="417" y="628" name="fh13"/>
      <point x="471" y="628" type="qcurve" name="av01"/>
      <point x="525" y="628"/>
      <point x="613" y="590" name="fh14"/>
      <point x="643.0" y="555.5" type="qcurve" smooth="yes" name="inserted"/>
      <point x="673" y="521" name="fh15"/>
      <point x="700" y="427"/>
      <point x="692" y="372" type="qcurve" name="sh01"/>
      <point x="684" y="317"/>
      <point x="632" y="223" name="fh16"/>
      <point x="592.5" y="189.0" type="qcurve" smooth="yes" name="inserted"/>
      <point x="553" y="155" name="fh17"/>
      <point x="454" y="117"/>
    </contour>
    <contour>
      <point x="524" y="464" type="line" name="sh07"/>
      <point x="531" y="507" type="line" name="sh08"/>
      <point x="516.0" y="516.0" name="inserted"/>
      <point x="482.0" y="525.0"/>
      <point x="463" y="525" type="qcurve" name="sv05"/>
      <point x="432" y="525"/>
      <point x="375" y="501"/>
      <point x="351.5" y="480.5" type="qcurve" smooth="yes" name="inserted"/>
      <point x="328" y="460"/>
      <point x="297" y="405"/>
      <point x="293" y="374" type="qcurve" name="sh09"/>
      <point x="288" y="343"/>
      <point x="304" y="289" name="fh18"/>
      <point x="321.0" y="269.0" type="qcurve" smooth="yes" name="inserted"/>
      <point x="338" y="249" name="fh19"/>
      <point x="389" y="226"/>
      <point x="420" y="226" type="qcurve" name="sv06"/>
      <point x="440.5" y="226.0" name="inserted"/>
      <point x="479.5" y="236.0"/>
      <point x="498" y="246" type="qcurve" name="sh11"/>
      <point x="505" y="236" type="line" name="sh10"/>
      <point x="485" y="225"/>
      <point x="442" y="213"/>
      <point x="419" y="213" type="qcurve" name="sv03"/>
      <point x="386" y="213"/>
      <point x="330" y="239" name="fh20"/>
      <point x="311.5" y="261.0" type="qcurve" smooth="yes" name="inserted"/>
      <point x="293" y="283" name="fh21"/>
      <point x="275" y="342"/>
      <point x="280" y="375" type="qcurve" name="sh04"/>
      <point x="285" y="409"/>
      <point x="319" y="468" name="fh22"/>
      <point x="343.5" y="490.0" type="qcurve" smooth="yes" name="inserted"/>
      <point x="368" y="512" name="fh23"/>
      <point x="431" y="537"/>
      <point x="464" y="537" type="qcurve" name="sv04"/>
      <point x="486.5" y="537.0" name="inserted"/>
      <point x="526.5" y="526.0"/>
      <point x="544" y="515" type="qcurve" name="sh05"/>
      <point x="537" y="464" type="line" name="sh06"/>
    </contour>
  </outline>
</glyph>
<glyph name="guillemotleft" format="1">
  <advance width="601"/>
  <unicode hex="00AB"/>
  <outline>
    <contour>
      <point x="459" y="77" type="line" name="sv01"/>
      <point x="310" y="239" type="line" name="sh01"/>
      <point x="359" y="280"/>
      <point x="455" y="359"/>
      <point x="504" y="400" type="qcurve" name="sh02"/>
      <point x="500" y="368" type="line" name="sv03"/>
      <point x="464" y="336"/>
      <point x="391" y="271"/>
      <point x="354" y="239" type="qcurve" name="sh03"/>
      <point x="381" y="206"/>
      <point x="436" y="141"/>
      <point x="463" y="109" type="qcurve" name="sh04"/>
    </contour>
    <contour>
      <point x="288" y="77" type="line" name="av01"/>
      <point x="139" y="239" type="line" name="ah01"/>
      <point x="188" y="280"/>
      <point x="284" y="359"/>
      <point x="333" y="400" type="qcurve" name="sh05"/>
      <point x="329" y="367" type="line" name="sv02"/>
      <point x="292" y="335"/>
      <point x="220" y="271"/>
      <point x="183" y="239" type="qcurve" name="sh06"/>
      <point x="210" y="206"/>
      <point x="265" y="141"/>
      <point x="292" y="109" type="qcurve" name="sh07"/>
    </contour>
  </outline>
</glyph>
<glyph name="logicalnot" format="1">
  <advance width="559"/>
  <unicode hex="00AC"/>
  <outline>
    <contour>
      <point x="432" y="148" type="line" name="sh02"/>
      <point x="442" y="219" type="line" name="sh03"/>
      <point x="110" y="219" type="line" name="dh01"/>
      <point x="113" y="242" type="line"/>
      <point x="473" y="242" type="line" name="dh02"/>
      <point x="460" y="148" type="line" name="sh01"/>
    </contour>
  </outline>
</glyph>
<glyph name="macron" format="1">
  <advance width="399"/>
  <unicode hex="00AF"/>
  <outline>
    <contour>
      <point x="85" y="489" type="line" name="dh01"/>
      <point x="87" y="511" type="line" name="sv01"/>
      <point x="317" y="511" type="line" name="dh02"/>
      <point x="315" y="489" type="line"/>
    </contour>
  </outline>
</glyph>
<glyph name="twosuperior" format="1">
  <advance width="398"/>
  <unicode hex="00B2"/>
  <outline>
    <contour>
      <point x="115" y="388" type="qcurve" name="sh01"/>
      <point x="268" y="388" type="line" name="sh04"/>
      <point x="276" y="442" type="line" name="sh03"/>
      <point x="289" y="442" type="line" name="sh02"/>
      <point x="279" y="375" type="line" name="sh05"/>
      <point x="79" y="375" type="line" name="dh01"/>
      <point x="115" y="406" name="fh01"/>
      <point x="183" y="465" name="fh02"/>
      <point x="210.0" y="493.0" type="qcurve" smooth="yes" name="inserted"/>
      <point x="237" y="521" name="fh03"/>
      <point x="272" y="574" name="fh04"/>
      <point x="276" y="597" type="qcurve" name="sh06"/>
      <point x="279" y="622"/>
      <point x="269" y="657"/>
      <point x="259.0" y="667.5" type="qcurve" smooth="yes" name="inserted"/>
      <point x="249" y="678"/>
      <point x="224" y="687"/>
      <point x="212" y="687" type="qcurve" name="sv01"/>
      <point x="189" y="687"/>
      <point x="156" y="670"/>
      <point x="145.5" y="658.0" type="qcurve" smooth="yes" name="inserted"/>
      <point x="135" y="646"/>
      <point x="125" y="617"/>
      <point x="123" y="605" type="qcurve" name="sh08"/>
      <point x="121.0" y="588.0" name="inserted"/>
      <point x="127.0" y="560.5"/>
      <point x="135" y="550" type="qcurve" name="sh09"/>
      <point x="126" y="542" type="line" name="sh10"/>
      <point x="116" y="553"/>
      <point x="107" y="585"/>
      <point x="109" y="605" type="qcurve" name="sh07"/>
      <point x="112" y="625" name="fh05"/>
      <point x="129" y="659" name="fh06"/>
      <point x="142.5" y="672.0" type="qcurve" smooth="yes" name="inserted"/>
      <point x="156" y="685" name="fh07"/>
      <point x="192" y="700"/>
      <point x="214" y="700" type="qcurve" name="at01"/>
      <point x="234" y="700"/>
      <point x="265" y="685" name="fh08"/>
      <point x="275.0" y="672.0" type="qcurve" smooth="yes" name="inserted"/>
      <point x="285" y="659" name="fh09"/>
      <point x="293" y="623"/>
      <point x="290" y="603" type="qcurve" name="dh02"/>
      <point x="286" y="575"/>
      <point x="252" y="520" name="fh10"/>
      <point x="227.0" y="493.5" type="qcurve" smooth="yes" name="inserted"/>
      <point x="202" y="467" name="fh11"/>
      <point x="143" y="414" name="fh12"/>
    </contour>
  </outline>
</glyph>
<glyph name="threesuperior" format="1">
  <advance width="419"/>
  <unicode hex="00B3"/>
  <outline>
    <contour>
      <point x="137" y="554" type="qcurve" name="ih01"/>
      <point x="254" y="686" type="line" name="sh02"/>
      <point x="135" y="686" type="line" name="sh04"/>
      <point x="130" y="655" type="line" name="sh03"/>
      <point x="117" y="655" type="line" name="ih02"/>
      <point x="123" y="700" type="line" name="sh05"/>
      <point x="282" y="700" type="line" name="sh01"/>
      <point x="172" y="577" type="line" name="sh06"/>
      <point x="193" y="577"/>
      <point x="228" y="562" name="fh01"/>
      <point x="240.0" y="548.5" type="qcurve" smooth="yes" name="inserted"/>
      <point x="252" y="535"/>
      <point x="263" y="499"/>
      <point x="261" y="478" type="qcurve" name="dh02"/>
      <point x="258" y="456" name="fh02"/>
      <point x="236" y="419" name="fv01"/>
      <point x="220.0" y="405.5" type="qcurve" smooth="yes" name="inserted"/>
      <point x="204" y="392" name="fh03"/>
      <point x="165" y="376"/>
      <point x="144" y="376" type="qcurve" name="sv01"/>
      <point x="121" y="376"/>
      <point x="86" y="394"/>
      <point x="74" y="409" type="qcurve" name="dh01"/>
      <point x="85" y="420" type="line" name="sh07"/>
      <point x="95" y="407"/>
      <point x="125" y="389"/>
      <point x="145" y="389" type="qcurve" name="sv03"/>
      <point x="163" y="389"/>
      <point x="197" y="404"/>
      <point x="211.5" y="416.0" type="qcurve" smooth="yes" name="inserted"/>
      <point x="226" y="428"/>
      <point x="244" y="460"/>
      <point x="247" y="478" type="qcurve" name="sh08"/>
      <point x="249" y="496"/>
      <point x="239" y="528"/>
      <point x="228.5" y="539.5" type="qcurve" smooth="yes" name="inserted"/>
      <point x="218" y="551" name="fh04"/>
      <point x="188" y="565"/>
      <point x="169" y="565" type="qcurve" name="sv02"/>
      <point x="161" y="565"/>
      <point x="145" y="559"/>
    </contour>
  </outline>
</glyph>
<glyph name="guillemotright" format="1">
  <advance width="601"/>
  <unicode hex="00BB"/>
  <outline>
    <contour>
      <point x="121" y="109" type="line" name="sv02"/>
      <point x="157" y="141"/>
      <point x="229" y="206"/>
      <point x="266" y="239" type="qcurve" name="sh02"/>
      <point x="158" y="368" type="line" name="sh04"/>
      <point x="162" y="400" type="line" name="sv04"/>
      <point x="199" y="359"/>
      <point x="273" y="280"/>
      <point x="310" y="239" type="qcurve" name="sh01"/>
      <point x="117" y="77" type="line" name="sh03"/>
    </contour>
    <contour>
      <point x="292" y="109" type="line" name="sv01"/>
      <point x="328" y="141"/>
      <point x="400" y="206"/>
      <point x="437" y="239" type="qcurve" name="sh05"/>
      <point x="410" y="271"/>
      <point x="355" y="335"/>
      <point x="329" y="367" type="qcurve" name="sh07"/>
      <point x="333" y="400" type="line" name="sv03"/>
      <point x="370" y="359"/>
      <point x="444" y="280"/>
      <point x="481" y="239" type="qcurve" name="ah01"/>
      <point x="288" y="77" type="line" name="sh06"/>
    </contour>
  </outline>
</glyph>
<glyph name="onequarter" format="1">
  <advance width="968"/>
  <unicode hex="00BC"/>
  <outline>
    <contour>
      <point x="234" y="-19" type="line" name="dh01"/>
      <point x="331" y="171"/>
      <point x="521" y="545"/>
      <point x="618" y="735" type="qcurve" name="sh01"/>
      <point x="646" y="735" type="line" name="dh02"/>
      <point x="549" y="545"/>
      <point x="359" y="171"/>
      <point x="262" y="-19" type="qcurve" name="sh02"/>
    </contour>
    <contour>
      <point x="663" y="20" type="line" name="sv01"/>
      <point x="721" y="20" type="line" name="sh03"/>
      <point x="737" y="136" type="line" name="ih01"/>
      <point x="486" y="136" type="line" name="dh03"/>
      <point x="808" y="490" type="line" name="sh05"/>
      <point x="761" y="156" type="line" name="ih02"/>
      <point x="833" y="156" type="line" name="sh06"/>
      <point x="830" y="136" type="line"/>
      <point x="758" y="136" type="line" name="ih03"/>
      <point x="741" y="20" type="line" name="dh04"/>
      <point x="803" y="20" type="line" name="sh07"/>
      <point x="800" y="0" type="line"/>
      <point x="660" y="0" type="line" name="sh08"/>
    </contour>
    <contour>
      <point x="778" y="429" type="line" name="sh04"/>
      <point x="531" y="156" type="line" name="sh09"/>
      <point x="740" y="156" type="line" name="ih04"/>
    </contour>
    <contour>
      <point x="122" y="253" type="line" name="sv02"/>
      <point x="179" y="253" type="line" name="ah01"/>
      <point x="238" y="676" type="line" name="sh10"/>
      <point x="164" y="676" type="line" name="sh11"/>
      <point x="167" y="695" type="line" name="sv03"/>
      <point x="261" y="695" type="line" name="sh13"/>
      <point x="199" y="253" type="line" name="sh12"/>
      <point x="256" y="253" type="line" name="sh14"/>
      <point x="253" y="234" type="line"/>
      <point x="120" y="234" type="line" name="sh15"/>
    </contour>
  </outline>
</glyph>
<glyph name="Ccedilla" format="1">
  <advance width="610"/>
  <unicode hex="00C7"/>
  <outline>
    <contour>
      <point x="646" y="474" type="line" name="sh02"/>
      <point x="670" y="641" type="line" name="sh03"/>
      <point x="637.0" y="661.0" name="inserted"/>
      <point x="561.5" y="681.0"/>
      <point x="519" y="681" type="qcurve" name="sv01"/>
      <point x="451" y="681"/>
      <point x="324" y="628" name="fh02"/>
      <point x="273.0" y="583.0" type="qcurve" smooth="yes" name="inserted"/>
      <point x="222" y="538" name="fh03"/>
      <point x="153" y="417"/>
      <point x="144" y="348" type="qcurve" name="sh04"/>
      <point x="134" y="280"/>
      <point x="169" y="160" name="fh04"/>
      <point x="207.0" y="115.5" type="qcurve" smooth="yes" name="inserted"/>
      <point x="245" y="71" name="fh05"/>
      <point x="356" y="19" name="fh06"/>
      <point x="424" y="19" type="qcurve" name="sv02"/>
      <point x="470" y="19"/>
      <point x="557" y="43"/>
      <point x="598" y="65" type="qcurve" name="sv03"/>
      <point x="612" y="42" type="line" name="ih01"/>
      <point x="568" y="19"/>
      <point x="475" y="-7"/>
      <point x="426" y="-8" type="qcurve" name="ab01"/>
      <point x="425" y="-12"/>
      <point x="424" y="-19" name="sh06"/>
      <point x="425" y="-21" type="qcurve"/>
      <point x="427" y="-39"/>
      <point x="449" y="-54"/>
      <point x="459" y="-61" type="qcurve" name="fh07"/>
      <point x="479" y="-76"/>
      <point x="493" y="-114"/>
      <point x="491" y="-130" type="qcurve" name="ih02"/>
      <point x="483" y="-180" name="fh08"/>
      <point x="426" y="-228" name="fh09"/>
      <point x="389" y="-228" type="qcurve" name="av01"/>
      <point x="361" y="-228"/>
      <point x="317" y="-198"/>
      <point x="312" y="-167" type="qcurve" name="sh07"/>
      <point x="334" y="-159" type="line" name="sh08"/>
      <point x="337" y="-179"/>
      <point x="366" y="-205"/>
      <point x="390" y="-205" type="qcurve" name="sv04"/>
      <point x="419" y="-205"/>
      <point x="462" y="-165"/>
      <point x="466" y="-136" type="qcurve" name="sh09"/>
      <point x="470" y="-110"/>
      <point x="449" y="-81"/>
      <point x="435.5" y="-70.5" type="qcurve" smooth="yes" name="inserted"/>
      <point x="422" y="-60"/>
      <point x="400" y="-39"/>
      <point x="403" y="-20" type="qcurve" name="sh05"/>
      <point x="404" y="-7" type="line" name="sv05"/>
      <point x="334" y="-4"/>
      <point x="219" y="55" name="fh10"/>
      <point x="180.0" y="103.0" type="qcurve" smooth="yes" name="inserted"/>
      <point x="141" y="151" name="fh11"/>
      <point x="106" y="277"/>
      <point x="116" y="349" type="qcurve" name="dh01"/>
      <point x="126" y="423"/>
      <point x="201" y="554" name="fh12"/>
      <point x="256.0" y="602.5" type="qcurve" smooth="yes" name="inserted"/>
      <point x="311" y="651"/>
      <point x="449" y="708"/>
      <point x="523" y="708" type="qcurve" name="at01"/>
      <point x="574" y="708"/>
      <point x="662" y="682" name="fh13"/>
      <point x="699" y="658" type="qcurve" name="dh02"/>
      <point x="673" y="474" type="line" name="sh01"/>
    </contour>
  </outline>
</glyph>
<glyph name="Thorn" format="1">
  <advance width="493"/>
  <unicode hex="00DE"/>
  <outline>
    <contour>
      <point x="38" y="27" type="line" name="sv01"/>
      <point x="109" y="27" type="line" name="dh01"/>
      <point x="200" y="673" type="line" name="sh01"/>
      <point x="129" y="673" type="line" name="sh02"/>
      <point x="133" y="700" type="line" name="at01"/>
      <point x="317" y="700" type="line" name="sh05"/>
      <point x="313" y="673" type="line"/>
      <point x="228" y="673" type="line" name="sh04"/>
      <point x="209" y="535" type="line" name="ih01"/>
      <point x="326" y="535" type="line"/>
      <point x="356" y="535"/>
      <point x="425" y="515" name="fh01"/>
      <point x="453.5" y="493.5" type="qcurve" smooth="yes" name="inserted"/>
      <point x="482" y="472" name="fh02"/>
      <point x="515" y="403" name="fh03"/>
      <point x="508" y="355" type="qcurve" name="dh02"/>
      <point x="496" y="270" name="fh04"/>
      <point x="371" y="170" name="fh05"/>
      <point x="268" y="170" type="qcurve"/>
      <point x="157" y="170" type="line" name="ih02"/>
      <point x="137" y="27" type="line" name="sh03"/>
      <point x="226" y="27" type="line" name="sh06"/>
      <point x="223" y="0" type="line"/>
      <point x="35" y="0" type="line" name="sh07"/>
    </contour>
    <contour>
      <point x="161" y="197" type="line" name="ih03"/>
      <point x="270" y="197" type="line"/>
      <point x="325" y="197" name="fh06"/>
      <point x="402" y="227" name="fv01"/>
      <point x="427.0" y="250.5" type="qcurve" smooth="yes" name="inserted"/>
      <point x="452" y="274"/>
      <point x="477" y="329"/>
      <point x="480" y="355" type="qcurve" name="sh08"/>
      <point x="484" y="385"/>
      <point x="463" y="441" name="fh07"/>
      <point x="441.0" y="462.0" type="qcurve" smooth="yes" name="inserted"/>
      <point x="419" y="483" name="fh08"/>
      <point x="355" y="508"/>
      <point x="315" y="508" type="qcurve"/>
      <point x="205" y="508" type="line" name="ih04"/>
    </contour>
  </outline>
</glyph>
<glyph name="aring" format="1">
  <advance width="535"/>
  <unicode hex="00E5"/>
  <outline>
    <contour>
      <point x="264" y="540" type="qcurve" name="sh01"/>
      <point x="261" y="521"/>
      <point x="285" y="494"/>
      <point x="303" y="494" type="qcurve" name="sv02"/>
      <point x="322" y="494"/>
      <point x="353" y="521"/>
      <point x="355" y="540" type="qcurve" name="sh03"/>
      <point x="357" y="558"/>
      <point x="334" y="586"/>
      <point x="315" y="586" type="qcurve" name="sv04"/>
      <point x="297" y="586"/>
      <point x="266" y="558"/>
    </contour>
    <contour>
      <point x="242" y="540" type="qcurve" name="ih01"/>
      <point x="246" y="569" name="fh01"/>
      <point x="290" y="608"/>
      <point x="319" y="608" type="qcurve" name="sv03"/>
      <point x="348" y="608"/>
      <point x="382" y="569"/>
      <point x="378" y="540" type="qcurve" name="sh02"/>
      <point x="373" y="511"/>
      <point x="329" y="472"/>
      <point x="300" y="472" type="qcurve" name="sv01"/>
      <point x="271" y="472"/>
      <point x="237" y="511"/>
    </contour>
    <contour>
      <point x="62" y="188" type="qcurve" name="dh01"/>
      <point x="68" y="228" name="fh02"/>
      <point x="108" y="299" name="fh03"/>
      <point x="138.0" y="325.5" type="qcurve" smooth="yes" name="inserted"/>
      <point x="168" y="352" name="fh04"/>
      <point x="244" y="383"/>
      <point x="285" y="383" type="qcurve" name="at01"/>
      <point x="315" y="383"/>
      <point x="366" y="366" name="fh05"/>
      <point x="386.0" y="351.0" type="qcurve" smooth="yes" name="inserted"/>
      <point x="406" y="336" name="fh06"/>
      <point x="434" y="296"/>
      <point x="440" y="274" type="qcurve" name="ih02"/>
      <point x="443" y="299"/>
      <point x="453" y="349"/>
      <point x="458" y="375" type="qcurve" name="sh04"/>
      <point x="479" y="375" type="line" name="dh02"/>
      <point x="430" y="27" type="line" name="sh06"/>
      <point x="504" y="27" type="line" name="sh07"/>
      <point x="500" y="0" type="line"/>
      <point x="401" y="0" type="line" name="sh05"/>
      <point x="408" y="47" type="line"/>
      <point x="410" y="61"/>
      <point x="414" y="88"/>
      <point x="416" y="102" type="qcurve" name="ih03"/>
      <point x="404" y="80"/>
      <point x="366" y="40" name="fh07"/>
      <point x="342.0" y="25.0" type="qcurve" smooth="yes" name="inserted"/>
      <point x="318" y="10"/>
      <point x="261" y="-7"/>
      <point x="230" y="-7" type="qcurve" name="ab01"/>
      <point x="189" y="-7"/>
      <point x="122" y="24" name="fh08"/>
      <point x="99.5" y="50.0" type="qcurve" smooth="yes" name="inserted"/>
      <point x="77" y="76"/>
      <point x="56" y="147"/>
    </contour>
    <contour>
      <point x="90" y="188" type="qcurve" name="sh08"/>
      <point x="85" y="153"/>
      <point x="102" y="92" name="fh09"/>
      <point x="121.5" y="69.5" type="qcurve" smooth="yes" name="inserted"/>
      <point x="141" y="47" name="fh10"/>
      <point x="198" y="21"/>
      <point x="233" y="21" type="qcurve" name="sv05"/>
      <point x="268" y="21"/>
      <point x="334" y="47" name="fv01"/>
      <point x="360.0" y="69.5" type="qcurve" smooth="yes" name="inserted"/>
      <point x="386" y="92" name="fh11"/>
      <point x="421" y="153" name="fh12"/>
      <point x="426" y="188" type="qcurve" name="ih04"/>
      <point x="431" y="223" name="fh13"/>
      <point x="413" y="284" name="fh14"/>
      <point x="393.5" y="307.0" type="qcurve" smooth="yes" name="inserted"/>
      <point x="374" y="330" name="fh15"/>
      <point x="316" y="356"/>
      <point x="281" y="356" type="qcurve" name="sv06"/>
      <point x="246" y="356"/>
      <point x="181" y="330" name="fh16"/>
      <point x="155.0" y="307.0" type="qcurve" smooth="yes" name="inserted"/>
      <point x="129" y="284" name="fh17"/>
      <point x="95" y="223"/>
    </contour>
  </outline>
</glyph>
<glyph name="ae" format="1">
  <advance width="587"/>
  <unicode hex="00E6"/>
  <outline>
    <contour>
      <point x="382" y="241" type="qcurve" name="ih01"/>
      <point x="376" y="197" type="line" name="ih02"/>
      <point x="421" y="214"/>
      <point x="509" y="247"/>
      <point x="554" y="264" type="qcurve" name="sh02"/>
      <point x="541" y="304"/>
      <point x="476" y="354"/>
      <point x="431" y="354" type="qcurve" name="sv01"/>
      <point x="415.0" y="354.0" name="inserted"/>
      <point x="383.0" y="347.5"/>
      <point x="367" y="341" type="qcurve" name="ih03"/>
      <point x="381" y="327"/>
      <point x="387" y="277"/>
    </contour>
    <contour>
      <point x="344" y="168" type="line" name="ih04"/>
      <point x="258" y="168" type="line" name="sv02"/>
      <point x="242" y="168"/>
      <point x="185" y="168"/>
      <point x="156.0" y="162.5" type="qcurve" smooth="yes" name="inserted"/>
      <point x="127" y="157"/>
      <point x="82" y="128"/>
      <point x="78" y="99" type="qcurve" name="sh05"/>
      <point x="75" y="73"/>
      <point x="95" y="41" name="fh01"/>
      <point x="113.0" y="32.0" type="qcurve" smooth="yes" name="inserted"/>
      <point x="131" y="23"/>
      <point x="176" y="17"/>
      <point x="197" y="17" type="qcurve" name="sv03"/>
      <point x="219" y="17"/>
      <point x="265" y="25"/>
      <point x="284.5" y="34.5" type="qcurve" smooth="yes" name="inserted"/>
      <point x="304" y="44" name="fh02"/>
      <point x="331" y="79"/>
      <point x="335" y="106" type="qcurve" name="sh04"/>
    </contour>
    <contour>
      <point x="129" y="320" type="qcurve" name="sv04"/>
      <point x="124" y="325"/>
      <point x="117" y="336"/>
      <point x="112" y="341" type="qcurve" name="sh06"/>
      <point x="123" y="349"/>
      <point x="155" y="364"/>
      <point x="173.5" y="369.5" type="qcurve" smooth="yes" name="inserted"/>
      <point x="192" y="375"/>
      <point x="229" y="381"/>
      <point x="246" y="381" type="qcurve" name="at01"/>
      <point x="283" y="381"/>
      <point x="334" y="373" name="fh03"/>
      <point x="351" y="363" type="qcurve" name="ih05"/>
      <point x="370.5" y="372.0" name="inserted"/>
      <point x="412.5" y="381.0"/>
      <point x="435" y="381" type="qcurve" name="at02"/>
      <point x="495" y="381" name="fh04"/>
      <point x="576" y="308" name="fh05"/>
      <point x="587" y="249" type="qcurve" name="dh02"/>
      <point x="533" y="229"/>
      <point x="426" y="188"/>
      <point x="372" y="167" type="qcurve" name="ih06"/>
      <point x="366" y="128" type="line" name="sh01"/>
      <point x="361" y="94"/>
      <point x="340" y="49"/>
      <point x="319" y="32" type="qcurve" name="ih07"/>
      <point x="334.5" y="25.5" name="inserted"/>
      <point x="367.5" y="19.0"/>
      <point x="385" y="19" type="qcurve" name="sv05"/>
      <point x="418" y="19"/>
      <point x="480" y="44"/>
      <point x="506" y="65" type="qcurve" name="sv06"/>
      <point x="509" y="59"/>
      <point x="517" y="49"/>
      <point x="520" y="44" type="qcurve" name="sh07"/>
      <point x="491" y="20"/>
      <point x="420" y="-8"/>
      <point x="381" y="-8" type="qcurve" name="ab01"/>
      <point x="356.5" y="-8.0" name="inserted"/>
      <point x="314.5" y="1.5"/>
      <point x="297" y="11" type="qcurve" name="ih08"/>
      <point x="277" y="0"/>
      <point x="226" y="-10"/>
      <point x="193" y="-10" type="qcurve" name="ab02"/>
      <point x="157" y="-10"/>
      <point x="100" y="0" name="fh07"/>
      <point x="81.0" y="13.0" type="qcurve" smooth="yes" name="inserted"/>
      <point x="62" y="26" name="fh08"/>
      <point x="45" y="67"/>
      <point x="49" y="99" type="qcurve" name="dh01"/>
      <point x="53" y="127" name="fh09"/>
      <point x="84" y="164" name="fh10"/>
      <point x="106.5" y="175.5" type="qcurve" smooth="yes" name="inserted"/>
      <point x="129" y="187" name="fh11"/>
      <point x="184" y="197"/>
      <point x="213" y="197" type="qcurve" name="iv01"/>
      <point x="348" y="197" type="line" name="ih09"/>
      <point x="354" y="243" type="line" name="sh03"/>
      <point x="358" y="271"/>
      <point x="355" y="312"/>
      <point x="343.0" y="326.0" type="qcurve" smooth="yes" name="inserted"/>
      <point x="331" y="340"/>
      <point x="283" y="354"/>
      <point x="241" y="354" type="qcurve" name="sv07"/>
      <point x="227" y="354"/>
      <point x="196" y="348"/>
      <point x="180.5" y="343.5" type="qcurve" smooth="yes" name="inserted"/>
      <point x="165" y="339"/>
      <point x="138" y="326"/>
    </contour>
  </outline>
</glyph>
<glyph name="iacute" format="1">
  <advance width="254"/>
  <unicode hex="00ED"/>
  <outline>
    <contour>
      <point x="38" y="27" type="line" name="sv01"/>
      <point x="118" y="27" type="line" name="dh01"/>
      <point x="163" y="348" type="line" name="sh01"/>
      <point x="83" y="348" type="line" name="sh03"/>
      <point x="87" y="375" type="line" name="at01"/>
      <point x="194" y="375" type="line" name="sh02"/>
      <point x="145" y="27" type="line" name="dh02"/>
      <point x="222" y="27" type="line" name="sh04"/>
      <point x="219" y="0" type="line"/>
      <point x="35" y="0" type="line" name="sh05"/>
    </contour>
    <contour>
      <point x="187" y="479" type="line" name="sh06"/>
      <point x="214" y="512"/>
      <point x="268" y="579"/>
      <point x="295" y="612" type="qcurve" name="sh08"/>
      <point x="325" y="612" type="line" name="sh07"/>
      <point x="296" y="579"/>
      <point x="240" y="512"/>
      <point x="212" y="479" type="qcurve" name="sh09"/>
    </contour>
  </outline>
</glyph>
<glyph name="icircumflex" format="1">
  <advance width="254"/>
  <unicode hex="00EE"/>
  <outline>
    <contour>
      <point x="38" y="27" type="line" name="sv01"/>
      <point x="118" y="27" type="line" name="dh01"/>
      <point x="163" y="348" type="line" name="sh01"/>
      <point x="83" y="348" type="line" name="sh03"/>
      <point x="87" y="375" type="line" name="at01"/>
      <point x="194" y="375" type="line" name="sh02"/>
      <point x="145" y="27" type="line" name="dh02"/>
      <point x="222" y="27" type="line" name="sh04"/>
      <point x="219" y="0" type="line"/>
      <point x="35" y="0" type="line" name="sh05"/>
    </contour>
    <contour>
      <point x="207" y="660" type="qcurve" name="ih01"/>
      <point x="231" y="615"/>
      <point x="278" y="524"/>
      <point x="302" y="479" type="qcurve" name="sh06"/>
      <point x="277" y="479" type="line" name="sh08"/>
      <point x="258" y="514"/>
      <point x="221" y="582"/>
      <point x="201" y="617" type="qcurve" name="sh09"/>
      <point x="87" y="479" type="line" name="sh10"/>
      <point x="62" y="479" type="line" name="sh07"/>
      <point x="98" y="524"/>
      <point x="171" y="615"/>
    </contour>
  </outline>
</glyph>
<glyph name="divide" format="1">
  <advance width="501"/>
  <unicode hex="00F7"/>
  <outline>
    <contour>
      <point x="428" y="209" type="line"/>
      <point x="68" y="209" type="line" name="sh01"/>
      <point x="71" y="237" type="line" name="sv01"/>
      <point x="431" y="237" type="line" name="sh04"/>
    </contour>
    <contour>
      <point x="242" y="347" type="qcurve" name="sh02"/>
      <point x="244" y="358"/>
      <point x="261" y="374"/>
      <point x="272" y="374" type="qcurve" name="sv03"/>
      <point x="283" y="374"/>
      <point x="296" y="358"/>
      <point x="294" y="347" type="qcurve" name="sh03"/>
      <point x="293" y="336"/>
      <point x="275" y="321"/>
      <point x="264" y="321" type="qcurve" name="sv02"/>
      <point x="253" y="321"/>
      <point x="240" y="336"/>
    </contour>
    <contour>
      <point x="207" y="97" type="qcurve" name="ah01"/>
      <point x="208" y="108"/>
      <point x="226" y="124"/>
      <point x="237" y="124" type="qcurve" name="sv04"/>
      <point x="248" y="124"/>
      <point x="261" y="108"/>
      <point x="259" y="97" type="qcurve" name="sh05"/>
      <point x="257" y="86"/>
      <point x="240" y="71"/>
      <point x="229" y="71" type="qcurve" name="sv05"/>
      <point x="218" y="71"/>
      <point x="205" y="86"/>
    </contour>
  </outline>
</glyph>
<glyph name="oslash" format="1">
  <advance width="461"/>
  <unicode hex="00F8"/>
  <outline>
    <contour>
      <point x="90" y="188" type="qcurve" name="sh01"/>
      <point x="85" y="153"/>
      <point x="102" y="94"/>
      <point x="121" y="71" type="qcurve" name="ih01"/>
      <point x="184" y="135"/>
      <point x="308" y="263"/>
      <point x="371" y="327" type="qcurve" name="ih02"/>
      <point x="353" y="341"/>
      <point x="307" y="356"/>
      <point x="281" y="356" type="qcurve" name="sv02"/>
      <point x="246" y="356"/>
      <point x="181" y="330" name="fh01"/>
      <point x="155.0" y="307.0" type="qcurve" smooth="yes" name="inserted"/>
      <point x="129" y="284" name="fh02"/>
      <point x="95" y="223"/>
    </contour>
    <contour>
      <point x="234" y="21" type="qcurve" name="sv01"/>
      <point x="269" y="21"/>
      <point x="334" y="47" name="fh03"/>
      <point x="360.0" y="69.5" type="qcurve" smooth="yes" name="inserted"/>
      <point x="386" y="92" name="fh04"/>
      <point x="421" y="153"/>
      <point x="426" y="188" type="qcurve" name="sh02"/>
      <point x="431" y="226"/>
      <point x="410" y="290"/>
      <point x="387" y="313" type="qcurve" name="ih03"/>
      <point x="324" y="249"/>
      <point x="198" y="121"/>
      <point x="135" y="57" type="qcurve" name="ih04"/>
      <point x="154.5" y="39.0" name="inserted"/>
      <point x="204.0" y="21.0"/>
    </contour>
    <contour>
      <point x="63" y="188" type="qcurve" name="dh01"/>
      <point x="69" y="228" name="fh05"/>
      <point x="109" y="300" name="fh06"/>
      <point x="139.0" y="326.0" type="qcurve" smooth="yes" name="inserted"/>
      <point x="169" y="352" name="fh07"/>
      <point x="244" y="383"/>
      <point x="285" y="383" type="qcurve" name="at01"/>
      <point x="317" y="383"/>
      <point x="371" y="365"/>
      <point x="392" y="348" type="qcurve" name="ih05"/>
      <point x="401" y="358"/>
      <point x="421" y="377"/>
      <point x="430" y="387" type="qcurve" name="sv03"/>
      <point x="434" y="383"/>
      <point x="441" y="376"/>
      <point x="444" y="372" type="qcurve" name="sh03"/>
      <point x="407" y="335" type="line" name="ih06"/>
      <point x="434" y="309" name="fh08"/>
      <point x="460" y="232"/>
      <point x="454" y="188" type="qcurve" name="dh02"/>
      <point x="448" y="147" name="fh09"/>
      <point x="408" y="76" name="fh10"/>
      <point x="378.0" y="50.0" type="qcurve" smooth="yes" name="inserted"/>
      <point x="348" y="24" name="fh11"/>
      <point x="272" y="-7"/>
      <point x="231" y="-7" type="qcurve" name="ab01"/>
      <point x="196" y="-7"/>
      <point x="136" y="16"/>
      <point x="114" y="36" type="qcurve" name="ih07"/>
      <point x="102" y="24"/>
      <point x="79" y="0"/>
      <point x="68" y="-12" type="qcurve" name="sv04"/>
      <point x="64" y="-8"/>
      <point x="57" y="-2"/>
      <point x="53" y="2" type="qcurve" name="sh04"/>
      <point x="65" y="15"/>
      <point x="88" y="38"/>
      <point x="99" y="50" type="qcurve" name="ih08"/>
      <point x="76" y="76" name="fh12"/>
      <point x="57" y="147"/>
    </contour>
  </outline>
</glyph>
<glyph name="thorn" format="1">
  <advance width="500"/>
  <unicode hex="00FE"/>
  <outline>
    <contour>
      <point x="-50" y="-223" type="line" name="sv01"/>
      <point x="26" y="-223" type="line" name="dh01"/>
      <point x="159" y="723" type="line" name="sh01"/>
      <point x="82" y="723" type="line" name="sh02"/>
      <point x="86" y="750" type="line" name="at02"/>
      <point x="270" y="750" type="line" name="sh05"/>
      <point x="266" y="723" type="line"/>
      <point x="187" y="723" type="line" name="sh04"/>
      <point x="131" y="329" type="line"/>
      <point x="129" y="315"/>
      <point x="122" y="285"/>
      <point x="120" y="271" type="qcurve" name="ih01"/>
      <point x="132" y="294"/>
      <point x="171" y="334"/>
      <point x="195.5" y="349.0" type="qcurve" smooth="yes" name="inserted"/>
      <point x="220" y="364"/>
      <point x="277" y="381"/>
      <point x="307" y="381" type="qcurve" name="at01"/>
      <point x="348" y="381"/>
      <point x="415" y="350" name="fh01"/>
      <point x="437.5" y="324.0" type="qcurve" smooth="yes" name="inserted"/>
      <point x="460" y="298" name="fh02"/>
      <point x="481" y="227"/>
      <point x="475" y="187" type="qcurve" name="dh02"/>
      <point x="469" y="146"/>
      <point x="429" y="75" name="fh03"/>
      <point x="399.0" y="49.0" type="qcurve" smooth="yes" name="inserted"/>
      <point x="369" y="23" name="fh04"/>
      <point x="293" y="-8" name="fh05"/>
      <point x="252" y="-8" type="qcurve" name="ab01"/>
      <point x="191" y="-8"/>
      <point x="109" y="55" name="fh06"/>
      <point x="98" y="100" type="qcurve" name="ih02"/>
      <point x="96" y="88"/>
      <point x="95" y="64"/>
      <point x="93" y="53" type="qcurve" name="fh07"/>
      <point x="54" y="-223" type="line" name="sh03"/>
      <point x="136" y="-223" type="line" name="sh06"/>
      <point x="133" y="-250" type="line"/>
      <point x="-54" y="-250" type="line" name="sh07"/>
    </contour>
    <contour>
      <point x="447" y="187" type="qcurve" name="sh08"/>
      <point x="452" y="222"/>
      <point x="435" y="283" name="fh08"/>
      <point x="415.5" y="305.5" type="qcurve" smooth="yes" name="inserted"/>
      <point x="396" y="328" name="fh09"/>
      <point x="338" y="354"/>
      <point x="303" y="354" type="qcurve" name="sv02"/>
      <point x="268" y="354"/>
      <point x="203" y="328"/>
      <point x="177.0" y="305.5" type="qcurve" smooth="yes" name="inserted"/>
      <point x="151" y="283" name="fh10"/>
      <point x="117" y="222"/>
      <point x="112" y="187" type="qcurve" name="ih03"/>
      <point x="107" y="152" name="fh11"/>
      <point x="124" y="91" name="fh12"/>
      <point x="143.5" y="68.0" type="qcurve" smooth="yes" name="inserted"/>
      <point x="163" y="45" name="fh13"/>
      <point x="221" y="19"/>
      <point x="256" y="19" type="qcurve" name="sv03"/>
      <point x="291" y="19"/>
      <point x="356" y="45" name="fh14"/>
      <point x="382.0" y="68.0" type="qcurve" smooth="yes" name="inserted"/>
      <point x="408" y="91" name="fh15"/>
      <point x="442" y="152" name="fh16"/>
    </contour>
  </outline>
</glyph>
<glyph name="emdash" format="1">
  <advance width="700"/>
  <unicode hex="2014"/>
  <outline>
    <contour>
      <point x="99" y="178" type="line" name="sh01"/>
      <point x="102" y="205" type="line" name="sv01"/>
      <point x="604" y="205" type="line" name="sh02"/>
      <point x="601" y="178" type="line"/>
    </contour>
  </outline>
</glyph>
<glyph name="bullet" format="1">
  <advance width="479"/>
  <unicode hex="2022"/>
  <outline>
    <contour>
      <point x="172" y="300" type="qcurve" name="ah01"/>
      <point x="177" y="333"/>
      <point x="228" y="378"/>
      <point x="260" y="378" type="qcurve" name="at01"/>
      <point x="293" y="378"/>
      <point x="333" y="333"/>
      <point x="328" y="300" type="qcurve" name="sh01"/>
      <point x="323" y="268"/>
      <point x="272" y="223"/>
      <point x="239" y="223" type="qcurve" name="sv01"/>
      <point x="223" y="223"/>
      <point x="196" y="235"/>
      <point x="187.0" y="245.5" type="qcurve" smooth="yes" name="inserted"/>
      <point x="178" y="256"/>
      <point x="170" y="284"/>
    </contour>
  </outline>
</glyph>
<glyph name="guilsinglright" format="1">
  <advance width="392"/>
  <unicode hex="203A"/>
  <outline>
    <contour>
      <point x="121" y="109" type="line" name="sv01"/>
      <point x="157" y="141"/>
      <point x="229" y="206"/>
      <point x="266" y="239" type="qcurve" name="sh01"/>
      <point x="239" y="271"/>
      <point x="184" y="335"/>
      <point x="158" y="367" type="qcurve" name="sh03"/>
      <point x="162" y="400" type="line" name="sv02"/>
      <point x="199" y="359"/>
      <point x="273" y="280"/>
      <point x="310" y="239" type="qcurve" name="ah01"/>
      <point x="117" y="77" type="line" name="sh02"/>
    </contour>
  </outline>
</glyph>
